<svg version="1.1" id="Layer_1" xmlns="http://www.w3.org/2000/svg" xmlns:xlink="http://www.w3.org/1999/xlink" x="0px" y="0px"
	 width="100%" viewBox="0 0 1024 1024" enable-background="new 0 0 1024 1024" xml:space="preserve">
<path fill="#FEFEFE" opacity="1.000000" stroke="none" 
	d="
M595.000000,1025.000000 
	C396.666656,1025.000000 198.833328,1025.000000 1.000000,1025.000000 
	C1.000000,683.666687 1.000000,342.333344 1.000000,1.000000 
	C342.333344,1.000000 683.666687,1.000000 1025.000000,1.000000 
	C1025.000000,342.333344 1025.000000,683.666687 1025.000000,1025.000000 
	C881.833313,1025.000000 738.666687,1025.000000 595.000000,1025.000000 
M726.906372,292.441803 
	C726.707214,292.151733 726.434509,291.974976 726.000000,291.998779 
	C726.000000,291.998779 726.088623,291.909973 725.905884,291.445709 
	C725.707336,291.154114 725.434631,290.976227 725.000000,290.998779 
	C725.000000,290.998779 725.088074,290.910858 724.905029,290.446320 
	C724.705872,290.154999 724.432800,289.977051 724.000000,290.000000 
	C724.000000,290.000000 724.087158,289.912537 723.898987,289.447968 
	C723.622375,289.272614 723.345764,289.097290 723.000000,288.998779 
	C723.000000,288.998779 723.076416,288.929352 722.879150,288.469482 
	C722.604187,288.291626 722.329224,288.113770 722.070801,287.973999 
	C722.070801,287.973999 722.075806,287.927765 721.959412,287.277374 
	C720.983765,286.501282 720.008179,285.725189 718.707520,284.372223 
	C714.879822,280.869476 711.052185,277.366730 706.960449,273.423767 
	C706.673279,273.250214 706.386108,273.076660 705.998413,272.982971 
	C705.998413,272.982971 706.097656,272.895630 705.916809,272.431732 
	C705.717712,272.140747 705.444458,271.965302 705.000000,271.997559 
	C705.000000,271.997559 705.094116,271.901215 704.911804,271.437317 
	C704.713013,271.145782 704.439819,270.969574 704.000000,270.998779 
	C704.000000,270.998779 704.090393,270.906158 703.903015,270.442810 
	C703.696594,270.157959 703.420532,269.983063 703.002441,270.000641 
	C703.002441,270.000641 703.081543,269.923950 702.893127,269.459015 
	C702.619080,269.279541 702.344971,269.100067 702.002441,269.000916 
	C702.002441,269.000916 702.079041,268.927704 701.889221,268.463287 
	C701.615356,268.283203 701.341492,268.103088 701.003174,268.001282 
	C701.003174,268.001282 701.077087,267.931122 700.887695,267.465973 
	C700.613647,267.285492 700.339661,267.105042 700.094299,266.952179 
	C700.094299,266.952179 700.091980,266.910583 699.974548,266.247223 
	C698.319824,264.826660 696.665161,263.406097 694.694824,261.406647 
	C692.535706,259.560547 690.376526,257.714447 687.956421,255.427399 
	C687.670654,255.253067 687.384949,255.078720 686.996277,254.981689 
	C686.996277,254.981689 687.096008,254.895493 686.913025,254.432632 
	C686.710876,254.145126 686.436768,253.970413 686.000000,253.999390 
	C686.000000,253.999390 686.091064,253.907578 685.906250,253.443542 
	C685.706543,253.152374 685.433044,252.975098 685.000000,253.000610 
	C685.000000,253.000610 685.088013,252.912613 684.902283,252.448441 
	C684.702271,252.157272 684.428650,251.979401 684.002441,252.000854 
	C684.002441,252.000854 684.085083,251.916931 683.900024,251.451996 
	C683.626404,251.273621 683.352783,251.095245 683.002441,251.000992 
	C683.002441,251.000992 683.083069,250.919205 682.896729,250.454376 
	C682.622314,250.276321 682.347839,250.098267 682.002441,250.001068 
	C682.002441,250.001068 682.079590,249.925217 681.891602,249.459351 
	C681.616333,249.281219 681.341125,249.103088 681.001770,249.000000 
	C681.001770,249.000000 681.073975,248.932495 680.876953,248.471802 
	C680.601135,248.294388 680.325317,248.116959 680.000488,248.000000 
	C680.000488,248.000000 680.060242,247.949905 679.865051,247.481522 
	C679.591553,247.291718 679.318115,247.101898 678.716858,246.339401 
	C675.466980,243.232361 672.217163,240.125320 668.683289,236.404099 
	C667.131348,236.301514 665.579468,236.198929 663.282654,236.072281 
	C662.546875,236.171570 661.811096,236.270859 660.358398,236.169785 
	C659.245178,236.469223 658.131897,236.768661 656.286682,237.036957 
	C654.864563,237.327423 653.442444,237.617889 651.682068,237.536636 
	C651.125488,237.707825 650.568848,237.879013 649.182190,238.021835 
	C647.815186,238.169113 646.448120,238.316376 644.399780,238.226715 
	C643.270935,238.528595 642.142029,238.830475 640.330566,239.127426 
	C639.227661,239.387970 638.124817,239.648514 636.630005,239.520554 
	C635.755066,239.714127 634.880066,239.907700 633.210510,240.066467 
	C632.166382,240.205048 631.122314,240.343613 629.307678,240.300018 
	C626.207825,240.899567 623.108032,241.499115 619.266724,242.078308 
	C618.535767,242.184723 617.804871,242.291138 616.266602,242.205826 
	C612.455872,242.909607 608.645142,243.613388 604.270691,244.116562 
	C603.786072,243.780457 603.301392,243.444351 602.611328,242.475937 
	C600.886780,240.951218 599.170654,239.416794 597.436340,237.903305 
	C582.773071,225.107483 565.398132,219.274719 546.015564,217.239731 
	C539.160706,194.739288 533.715515,171.712784 521.586548,150.734726 
	C520.839661,151.631149 520.277161,152.061798 520.037842,152.628876 
	C512.287231,170.994690 504.567780,189.373642 496.298889,208.217499 
	C494.121796,213.453079 491.944702,218.688644 489.130432,223.562180 
	C486.453186,223.041183 483.775909,222.520172 481.324310,221.358368 
	C486.275726,211.629349 491.227142,201.900314 496.544952,191.998306 
	C496.502960,191.776291 496.460968,191.554260 496.418976,191.332230 
	C496.252777,191.524261 496.086609,191.716278 495.226685,191.994141 
	C484.332947,199.351517 473.536621,206.861313 462.463623,213.938171 
	C460.238007,215.360565 456.781708,216.033127 454.200867,215.515533 
	C444.274841,213.524826 434.484711,210.864410 424.621490,208.549149 
	C420.263428,207.526154 415.851837,206.731125 411.651093,205.870804 
	C421.978973,225.267319 432.022919,244.130646 442.062012,263.764282 
	C441.363586,266.093964 440.665131,268.423645 439.167969,270.909698 
	C436.063538,271.115723 432.959076,271.321747 429.288086,271.201294 
	C428.887848,271.030975 428.487610,270.860687 427.780670,270.092468 
	C425.090942,268.316345 422.401245,266.540253 419.848724,264.039276 
	C417.443848,255.064667 410.018433,250.049072 403.946472,243.980301 
	C403.596405,243.630432 402.669586,243.857590 401.942627,243.147400 
	C399.578156,241.759201 397.213684,240.370987 395.043365,238.241577 
	C394.758301,235.621201 395.317535,232.436920 394.019409,230.493149 
	C390.936462,225.877029 387.081360,221.748978 383.291931,217.651550 
	C382.328094,216.609360 380.443390,216.418762 378.578217,215.325073 
	C376.690399,213.527359 374.802612,211.729660 373.027313,209.136566 
	C372.899200,204.053650 362.278259,190.653046 357.469391,189.561996 
	C357.016541,189.459244 356.492035,189.672424 355.929474,189.096786 
	C354.417267,187.359482 352.905060,185.622177 351.473419,183.070724 
	C349.632202,174.180817 343.021912,169.012177 336.390137,163.903168 
	C335.896118,163.522598 334.807129,163.914383 333.770905,163.343338 
	C332.274414,162.226273 330.777954,161.109222 329.283264,159.137070 
	C329.027832,149.228577 321.388000,144.564255 314.489532,138.575989 
	C312.890289,137.709320 311.291046,136.842636 309.863281,135.175369 
	C309.925354,129.768188 302.972900,120.639832 296.143005,117.994804 
	C295.160339,117.254684 293.355103,116.550049 293.321442,115.768997 
	C292.960205,107.396111 285.849548,104.674561 280.824097,100.166885 
	C282.376862,107.276733 283.273315,114.682259 290.410492,118.689217 
	C291.215424,122.332794 292.072235,126.211288 292.969330,130.038742 
	C292.969330,130.038742 292.905151,130.029419 292.961609,130.623657 
	C293.300629,131.095734 293.639679,131.567810 294.006744,132.009872 
	C294.006744,132.009872 293.965881,132.011871 294.049011,132.668854 
	C294.338104,132.984634 294.627167,133.300415 294.821106,133.833450 
	C294.821106,133.833450 294.997009,133.992538 295.018951,134.557404 
	C295.269012,134.812881 295.519073,135.068359 295.809052,135.130508 
	C295.809052,135.130508 295.614105,135.161530 295.747833,135.843262 
	C296.127289,136.399216 296.506744,136.955185 296.821686,137.813858 
	C296.821686,137.813858 297.062927,138.007767 297.111481,138.608902 
	C297.619324,139.207108 298.127136,139.805328 298.624176,140.426132 
	C298.624176,140.426132 298.604492,140.441681 298.952576,140.997711 
	C299.960632,141.076553 300.968689,141.155380 302.115631,142.121109 
	C302.725494,145.415085 303.335327,148.709061 304.113617,152.712997 
	C306.117340,156.844727 308.036896,161.020218 310.154633,165.092667 
	C311.547150,167.770523 313.587921,169.540939 316.947174,169.274155 
	C317.704193,172.203354 318.461212,175.132553 319.068359,178.874207 
	C320.455933,187.241211 323.649994,194.703735 330.027161,201.402252 
	C331.397736,204.613571 332.768311,207.824875 334.145813,211.778610 
	C336.924530,217.572037 339.545807,223.450516 342.596436,229.097031 
	C343.327759,230.450668 345.486938,231.032867 347.293732,232.620209 
	C348.597717,236.183853 349.901703,239.747498 351.268555,244.027740 
	C353.901245,250.370941 356.356201,256.798767 359.304993,262.991455 
	C359.954895,264.356323 362.355804,264.887421 364.254761,266.454559 
	C365.521973,269.336548 366.789185,272.218536 367.960419,275.788391 
	C367.850159,276.610809 367.416687,277.558563 367.679474,278.236328 
	C370.372620,285.181671 373.115143,292.110413 376.043365,298.958496 
	C376.366333,299.713837 377.932220,299.937744 378.943726,301.101776 
	C380.308563,304.085419 381.673431,307.069092 382.989197,310.902283 
	C382.136200,313.923950 381.283173,316.945618 379.789185,320.036377 
	C371.218323,325.666138 362.647461,331.295898 354.012787,336.071930 
	C352.219513,323.417603 350.426239,310.763306 348.632996,298.108978 
	C348.289276,298.068024 347.945557,298.027100 347.601868,297.986145 
	C345.158051,317.908203 342.714264,337.830261 340.151764,358.719818 
	C337.503357,355.243103 335.512360,352.629425 332.868896,349.159180 
	C332.664032,351.072784 332.290344,351.929047 332.555328,352.475708 
	C338.295197,364.316345 341.581543,377.599854 352.858704,386.169617 
	C357.458557,389.665131 361.501312,394.191498 361.345886,400.229156 
	C361.192200,406.197113 359.568878,412.127258 357.884338,418.266602 
	C355.395905,426.919250 353.143707,435.648376 350.370758,444.208862 
	C344.267090,463.051941 337.950745,481.826996 331.540588,500.568024 
	C331.056885,501.982208 329.141357,502.906647 327.200226,504.158600 
	C326.418060,505.551971 325.438110,506.871216 324.883881,508.350037 
	C318.291229,525.941528 311.719116,543.540894 305.227051,561.169739 
	C297.300018,582.695312 289.454102,604.250793 281.136658,626.327637 
	C274.819336,643.287415 268.609528,660.288696 262.090912,677.170776 
	C260.838348,680.414734 258.856598,683.684082 256.388489,686.101807 
	C240.313293,701.848816 240.948135,726.602417 258.351044,740.567322 
	C263.340607,743.039612 268.117493,746.684387 273.382294,747.639099 
	C278.200104,748.512939 281.542694,749.950623 284.032898,754.727478 
	C292.751648,767.884766 304.797211,776.521484 319.998077,780.520752 
	C322.335144,781.135559 325.641968,780.561768 327.719208,779.275879 
	C346.062714,767.920776 364.181641,756.203186 382.498810,744.804626 
	C385.350983,743.029724 386.477539,741.141418 385.844147,737.985229 
	C384.213959,729.862610 382.556488,721.744629 381.047943,713.599182 
	C380.788696,712.199219 381.208832,710.673401 382.040894,709.102173 
	C411.065216,697.024536 440.089569,684.946960 469.097809,672.876038 
	C468.193268,670.579712 467.530823,668.897949 467.330017,666.618164 
	C477.325226,662.699768 487.288422,658.696838 497.327209,654.893372 
	C503.758087,652.456909 510.300446,650.314575 517.216370,648.587585 
	C524.930115,662.314697 532.722595,675.998535 540.302185,689.799316 
	C542.185913,693.229126 543.380920,697.037231 544.999329,701.470337 
	C549.019653,715.783081 553.518372,729.982605 556.936707,744.437683 
	C561.034180,761.764587 564.380249,779.276855 567.716309,796.772827 
	C569.506897,806.163330 570.742615,815.669250 571.936951,825.159790 
	C572.528625,829.862000 573.770996,830.770752 578.327393,829.343872 
	C597.103455,823.463867 615.930603,817.746887 634.710754,811.879700 
	C643.840515,809.027405 652.908203,805.976379 662.785095,802.999207 
	C677.997498,798.434753 693.186096,793.788879 708.431274,789.336731 
	C717.458801,786.700439 726.575745,784.370422 735.408569,782.710571 
	C728.197815,808.696411 720.987061,834.682251 713.776306,860.668091 
	C714.308716,860.947815 714.841125,861.227600 715.373596,861.507385 
	C733.941895,831.087769 752.510193,800.668152 771.912415,770.249084 
	C782.945312,768.357361 793.978271,766.465637 805.916260,764.771545 
	C811.819824,764.771545 817.723328,764.771545 824.147278,764.771545 
	C822.603699,759.582458 821.203430,755.189392 819.990051,750.745239 
	C812.353516,722.776733 811.049927,694.033386 810.249756,665.320801 
	C809.531982,639.561768 809.713562,613.771362 809.856689,587.996826 
	C809.954651,570.365845 810.634216,552.737305 811.152100,535.110535 
	C811.210815,533.112488 811.907288,531.133179 812.421997,528.579407 
	C821.086426,535.097473 829.026062,541.070312 837.111267,547.395752 
	C837.297119,547.369080 837.482910,547.342407 837.668762,547.315796 
	C837.484741,547.173279 837.300659,547.030762 837.196594,546.125366 
	C832.140625,534.741028 826.781250,523.479065 822.124084,511.933899 
	C818.353760,502.587158 814.134827,493.129181 812.393005,483.316193 
	C808.565369,461.751831 799.487976,443.315094 784.610962,427.349243 
	C796.708801,425.822449 808.806641,424.295654 820.904480,422.768829 
	C819.309753,421.696259 817.730103,421.144623 816.122742,421.045868 
	C801.825439,420.167206 788.271790,416.601501 775.879089,409.369537 
	C767.128662,404.263031 759.375610,397.862213 757.373230,387.228333 
	C756.278015,381.411896 756.920593,375.275146 755.900879,369.436310 
	C752.475647,349.823853 743.418213,333.280212 728.077393,320.322784 
	C727.329163,319.690796 727.418335,318.067383 727.809509,317.036041 
	C739.497375,323.054932 751.185242,329.073822 763.331665,335.611481 
	C768.273987,338.052643 773.216309,340.493805 778.158569,342.934937 
	C778.510986,342.435974 778.863403,341.937012 779.215820,341.438080 
	C774.853821,337.587280 770.491821,333.736481 766.115417,329.910950 
	C766.115417,329.910950 766.086792,329.906128 765.901672,329.443695 
	C765.698364,329.156921 765.423645,328.982727 765.000000,329.000000 
	C765.000000,329.000000 765.077637,328.920959 764.888306,328.460114 
	C764.687805,328.171631 764.415161,327.993896 764.000000,328.000000 
	C764.000000,328.000000 764.072876,327.928284 763.884399,327.466003 
	C763.684448,327.176239 763.411743,326.997498 763.000000,327.000000 
	C763.000000,327.000000 763.069580,326.932526 762.876526,326.472351 
	C762.672180,326.187347 762.398193,326.009979 762.060364,325.960083 
	C762.060364,325.960083 762.070984,325.928650 761.951538,325.271301 
	C760.653015,324.162994 759.354492,323.054688 758.029724,321.972534 
	C758.029724,321.972534 758.044800,321.955750 757.851807,321.492920 
	C757.577332,321.313568 757.302856,321.134247 756.791748,320.533112 
	C756.581848,320.275513 756.319092,320.094666 755.818115,319.531677 
	C755.619263,319.242401 755.346436,319.070587 754.683044,318.441895 
	C752.860962,316.916748 751.038818,315.391571 748.954529,313.426544 
	C748.668152,313.253113 748.381775,313.079681 748.000000,312.985779 
	C748.000000,312.985779 748.094482,312.899536 747.913879,312.435822 
	C747.716064,312.144318 747.443726,311.967773 746.999451,311.996338 
	C746.999451,311.996338 747.093933,311.901428 746.912781,311.437286 
	C746.714722,311.145477 746.442078,310.968658 746.000000,310.997559 
	C746.000000,310.997559 746.093140,310.903320 745.911255,310.438965 
	C745.712891,310.146973 745.440002,309.970062 745.000000,309.998779 
	C745.000000,309.998779 745.091492,309.905762 744.905334,309.441986 
	C744.701050,309.154785 744.425598,308.979492 744.000000,309.000000 
	C744.000000,309.000000 744.083008,308.919678 743.894226,308.455811 
	C743.619446,308.278198 743.344604,308.100586 743.002441,308.000854 
	C743.002441,308.000854 743.076599,307.928741 742.887817,307.464233 
	C742.613647,307.285095 742.339417,307.105957 742.002441,307.000000 
	C742.002441,307.000000 742.072754,306.933655 741.880981,306.470184 
	C741.605591,306.292053 741.330139,306.113892 741.002441,306.000244 
	C741.002441,306.000244 741.063843,305.944061 740.871216,305.479584 
	C740.595337,305.301514 740.319519,305.123444 740.051208,304.989929 
	C740.051208,304.989929 740.063599,304.941284 739.943909,304.281006 
	C738.636108,303.176880 737.328247,302.072754 735.710205,300.402283 
	C734.219360,299.219238 732.728455,298.036194 730.970947,296.416321 
	C730.684875,296.243439 730.398743,296.070526 729.993164,295.961884 
	C729.993164,295.961884 730.103699,295.880676 729.926941,295.419189 
	C729.730225,295.129028 729.458923,294.955444 729.003052,294.987244 
	C729.003052,294.987244 729.101135,294.884979 728.921936,294.423126 
	C728.722229,294.134918 728.449524,293.961548 727.999634,293.992828 
	C727.999634,293.992828 728.096619,293.894226 727.915405,293.430817 
	C727.715515,293.140656 727.441772,292.966248 727.000000,292.998779 
	C727.000000,292.998779 727.091309,292.904022 726.906372,292.441803 
z"/>
<path fill="#DBF4F6" opacity="1.000000" stroke="none" 
	d="
M516.792847,648.040405 
	C510.300446,650.314575 503.758087,652.456909 497.327209,654.893372 
	C487.288422,658.696838 477.325226,662.699768 466.822998,666.698669 
	C461.599396,657.730591 456.896393,648.674866 452.154053,639.639832 
	C451.277252,637.969299 450.591797,635.458618 447.670898,638.090820 
	C440.433807,641.775818 433.506500,645.351990 426.676514,649.105347 
	C407.062195,659.884155 387.487244,670.734680 367.571350,681.587158 
	C357.900604,668.665527 345.687408,659.036865 331.971710,650.775146 
	C333.334412,648.256775 334.274170,645.649658 336.102844,644.074219 
	C347.149994,634.556641 358.380035,625.250671 369.588226,615.921021 
	C382.448792,605.215942 395.349823,594.559509 408.233948,583.882690 
	C418.696350,575.212769 429.110382,566.483643 439.634613,557.889465 
	C454.099274,546.077454 468.647705,534.368042 483.604034,522.730957 
	C487.961823,522.847351 491.875763,522.847351 496.400696,522.847351 
	C496.400696,516.554382 496.722504,510.582062 496.243134,504.674774 
	C496.049957,502.294556 494.101837,500.056763 493.009277,497.420959 
	C496.426697,492.327118 499.787231,487.566406 503.459106,482.697815 
	C509.625244,479.246887 515.405212,475.761841 521.367310,472.622559 
	C524.225159,471.117767 525.474792,469.077667 525.683289,465.997131 
	C528.052979,467.352875 530.380493,468.407196 532.038452,470.112488 
	C535.778320,473.958984 538.647583,472.785736 542.073914,469.555176 
	C547.361328,464.569855 552.979797,459.928162 558.557251,455.259552 
	C569.703369,445.929657 580.636047,436.311279 592.193848,427.517792 
	C601.000854,420.817230 608.138000,411.754242 619.391602,407.942932 
	C631.794434,414.269531 637.715149,424.606445 639.269470,438.181580 
	C639.131775,440.462616 639.005066,442.305481 639.184265,444.118103 
	C641.259705,465.105743 640.001709,485.955414 635.950867,506.583099 
	C628.901611,542.479187 613.487549,574.259888 587.832642,600.627380 
	C568.773804,620.215576 545.848877,634.136169 520.911499,644.955139 
	C519.380615,645.619324 518.158569,646.995483 516.792847,648.040405 
z"/>
<path fill="#EAFAF9" opacity="1.000000" stroke="none" 
	d="
M619.031433,407.905243 
	C608.138000,411.754242 601.000854,420.817230 592.193848,427.517792 
	C580.636047,436.311279 569.703369,445.929657 558.557251,455.259552 
	C552.979797,459.928162 547.361328,464.569855 542.073914,469.555176 
	C538.647583,472.785736 535.778320,473.958984 532.038452,470.112488 
	C530.380493,468.407196 528.052979,467.352875 525.610962,465.620636 
	C525.235596,464.475647 525.278564,463.713074 525.513977,462.738403 
	C525.509399,461.691559 525.312378,460.856873 524.923584,459.735626 
	C518.875427,455.033295 512.716858,451.400848 504.823303,451.527222 
	C501.676636,445.534851 498.711792,439.841644 495.707275,434.169495 
	C494.809052,432.473755 493.799774,430.836853 493.016083,428.825562 
	C498.417603,420.777924 495.611816,412.353333 496.137604,403.196930 
	C490.817169,404.019775 485.620544,403.520966 482.101776,405.714172 
	C478.156403,408.173279 475.728790,413.067535 472.274963,416.827087 
	C465.232666,415.865997 458.561951,414.360504 451.877747,414.297913 
	C446.885742,414.251190 441.876343,416.067383 436.737000,416.751038 
	C430.880463,408.460785 425.082336,400.626129 412.882568,404.559814 
	C413.615570,413.066162 410.556366,422.302124 417.132080,430.381531 
	C413.320496,437.808655 409.610962,444.895996 405.523987,451.916779 
	C397.126160,449.526154 391.587830,454.825165 385.763580,458.579468 
	C383.100067,460.296387 384.228058,469.473907 386.942169,471.250854 
	C392.669525,475.000702 398.546631,478.502625 406.171631,477.076111 
	C407.629822,480.561798 408.491547,483.949829 410.090881,486.943878 
	C412.089783,490.685944 414.695374,494.103912 416.706360,497.843201 
	C409.503357,505.939178 414.512787,515.049561 412.602661,524.637146 
	C418.388794,523.489746 423.581177,523.734497 427.093475,521.424622 
	C431.035400,518.832275 433.458862,513.930969 436.905273,510.053284 
	C444.218628,511.039215 451.157562,512.626587 458.124878,512.763062 
	C463.079559,512.859985 468.072540,511.002014 473.191345,510.320312 
	C476.609558,514.620911 479.884888,518.617798 483.160217,522.614624 
	C468.647705,534.368042 454.099274,546.077454 439.634613,557.889465 
	C429.110382,566.483643 418.696350,575.212769 408.233948,583.882690 
	C395.349823,594.559509 382.448792,605.215942 369.588226,615.921021 
	C358.380035,625.250671 347.149994,634.556641 336.102844,644.074219 
	C334.274170,645.649658 333.334412,648.256775 331.616516,650.699951 
	C325.520416,648.236084 319.791656,645.459534 313.846130,642.431885 
	C310.780975,640.501465 307.932587,638.822083 305.341583,636.885010 
	C306.479004,634.123169 307.323578,631.605957 308.244293,629.117004 
	C321.141815,594.251648 334.021393,559.379578 347.012634,524.549194 
	C347.982117,521.949890 347.680603,520.559814 345.416992,518.785522 
	C339.415039,514.080811 333.712860,508.993713 327.891418,504.058746 
	C329.141357,502.906647 331.056885,501.982208 331.540588,500.568024 
	C337.950745,481.826996 344.267090,463.051941 350.370758,444.208862 
	C353.143707,435.648376 355.395905,426.919250 358.570740,417.996460 
	C360.106934,416.302643 360.995697,414.900543 361.800720,413.451965 
	C374.798737,390.063873 393.629913,374.038330 420.513489,369.957581 
	C428.659332,368.721069 434.392273,366.063477 438.822693,359.580933 
	C439.754272,358.217804 440.985748,357.053711 442.119537,355.835602 
	C452.425140,344.763885 462.739746,333.700531 473.262268,322.918762 
	C476.552338,327.319031 479.325684,331.716248 482.783600,335.485382 
	C487.915466,341.079071 493.917023,345.496124 502.445526,345.785950 
	C513.416809,346.165192 521.674133,341.216583 529.386169,334.268982 
	C529.862732,333.807312 530.070679,333.480499 530.203918,333.159546 
	C530.129272,333.165375 530.198547,333.298218 530.463135,333.214722 
	C530.927002,332.834534 531.126343,332.537872 531.259094,332.228760 
	C531.192444,332.216278 531.254761,332.336731 531.519775,332.252502 
	C531.968750,331.860016 532.152710,331.551788 532.362183,331.255371 
	C532.387634,331.267151 532.439941,331.287689 532.699585,331.182556 
	C533.558350,330.399261 534.157532,329.721069 534.835388,329.396545 
	C535.195923,330.506775 535.291626,331.424896 535.787231,331.995972 
	C545.642944,343.351807 555.544861,354.667480 565.642212,366.256226 
	C566.221375,366.701111 566.595642,366.881042 566.973877,367.027893 
	C566.977844,366.994812 566.941528,367.050964 566.925293,367.397705 
	C574.286133,376.672699 581.631775,385.627319 589.062561,394.510803 
	C590.922607,396.734467 593.056274,398.729279 595.492065,400.914490 
	C604.151123,401.536652 612.403076,402.004120 619.031433,407.905243 
z"/>
<path fill="#E9FAF9" opacity="1.000000" stroke="none" 
	d="
M662.004028,803.015381 
	C652.908203,805.976379 643.840515,809.027405 634.710754,811.879700 
	C615.930603,817.746887 597.103455,823.463867 578.327393,829.343872 
	C573.770996,830.770752 572.528625,829.862000 571.936951,825.159790 
	C570.742615,815.669250 569.506897,806.163330 567.716309,796.772827 
	C564.380249,779.276855 561.034180,761.764587 556.936707,744.437683 
	C553.518372,729.982605 549.019653,715.783081 544.913696,700.637085 
	C546.055908,691.805115 546.313293,683.500122 548.719910,675.873352 
	C553.274658,661.439209 564.110107,651.356445 576.118286,643.120972 
	C608.751587,620.740417 630.741211,590.486511 644.044434,553.623657 
	C651.701843,532.405029 652.953247,510.128052 653.978821,487.854340 
	C654.073059,485.808960 654.707886,483.788483 655.382385,481.924255 
	C657.472046,483.369659 659.270996,484.647278 661.081787,486.397827 
	C661.397095,592.252319 661.700562,697.633850 662.004028,803.015381 
z"/>
<path fill="#479BB0" opacity="1.000000" stroke="none" 
	d="
M805.011169,764.573914 
	C793.978271,766.465637 782.945312,768.357361 771.454346,769.802185 
	C771.352417,753.615784 772.827942,737.802734 771.800720,722.154053 
	C770.285095,699.067200 759.482117,680.087219 742.106628,664.739929 
	C727.144958,651.524780 719.852966,634.310608 718.038574,614.794983 
	C716.393066,597.094727 721.142944,580.571289 728.566895,564.620911 
	C736.437012,547.711975 740.754395,530.150696 736.270081,511.429871 
	C731.679138,492.264099 720.224121,477.813263 704.984009,465.862854 
	C699.000732,461.171112 693.545410,455.806122 688.112122,450.527039 
	C691.942993,448.526245 695.429626,446.549896 699.102234,445.020050 
	C702.926392,443.427124 703.355591,441.962860 701.174133,438.055328 
	C698.587097,433.421112 696.954895,427.997223 696.102844,422.722687 
	C695.237915,417.368774 695.834351,411.779724 695.779846,406.293762 
	C695.544800,382.625641 680.125671,360.692261 658.150391,352.490570 
	C647.560913,348.538300 636.603271,349.088806 625.832092,348.975586 
	C634.394836,337.472076 642.769348,326.298218 651.583374,315.068176 
	C677.025330,315.674957 697.130310,326.281586 713.140625,345.159637 
	C721.567871,355.096283 725.881226,366.427002 725.102783,379.627563 
	C724.769897,385.271240 724.933167,390.956451 725.109741,396.615295 
	C725.439697,407.187317 727.967468,417.321014 734.963989,425.351746 
	C744.122009,435.863586 754.121643,445.642303 763.888062,456.073730 
	C764.576599,457.236816 765.058228,458.130280 765.707275,458.878510 
	C785.646790,481.866028 789.768433,508.664215 783.812134,537.450256 
	C780.857849,551.727905 776.597107,565.749268 772.595581,579.791992 
	C769.128113,591.960388 768.663147,604.027649 772.554382,616.118225 
	C777.384888,631.127380 779.557678,646.424194 779.371887,662.247070 
	C779.217957,675.354553 779.866089,688.525452 781.085693,701.581665 
	C782.677795,718.625488 787.759033,734.782166 796.171936,749.776062 
	C798.982361,754.784973 802.057190,759.645569 805.011169,764.573914 
z"/>
<path fill="#47357C" opacity="1.000000" stroke="none" 
	d="
M687.849670,450.747711 
	C693.545410,455.806122 699.000732,461.171112 704.984009,465.862854 
	C720.224121,477.813263 731.679138,492.264099 736.270081,511.429871 
	C740.754395,530.150696 736.437012,547.711975 728.566895,564.620911 
	C721.142944,580.571289 716.393066,597.094727 718.038574,614.794983 
	C719.852966,634.310608 727.144958,651.524780 742.106628,664.739929 
	C759.482117,680.087219 770.285095,699.067200 771.800720,722.154053 
	C772.827942,737.802734 771.352417,753.615784 771.037354,769.801880 
	C752.510193,800.668152 733.941895,831.087769 715.373596,861.507385 
	C714.841125,861.227600 714.308716,860.947815 713.776306,860.668091 
	C720.987061,834.682251 728.197815,808.696411 735.698364,782.004150 
	C739.116150,769.418701 740.215576,757.359314 738.527649,745.180115 
	C735.489197,723.256042 723.267944,707.286072 705.351440,695.211243 
	C702.668396,693.402954 701.100952,691.561462 701.077271,688.026917 
	C700.941162,667.703674 700.665894,647.379517 700.220825,627.060486 
	C699.582642,597.923035 699.030884,568.779419 697.930603,539.657776 
	C696.968628,514.198669 685.174805,495.727997 661.069946,485.924896 
	C659.270996,484.647278 657.472046,483.369659 655.235962,481.633118 
	C649.433105,477.089722 645.765808,471.730011 644.234070,465.252899 
	C643.018982,460.115082 642.807312,454.747925 641.934326,449.518616 
	C641.273376,445.559448 640.272217,441.657013 639.422485,437.729309 
	C637.715149,424.606445 631.794434,414.269531 619.391602,407.942932 
	C612.403076,402.004120 604.151123,401.536652 595.635132,400.623901 
	C601.217102,393.164246 607.083984,386.080353 613.330933,378.816284 
	C618.170898,378.355164 622.636047,377.769958 627.089722,377.846497 
	C645.384277,378.160675 660.570251,388.821594 666.779236,405.928070 
	C668.692078,411.198212 669.770264,416.789734 670.999207,422.285828 
	C673.534485,433.624420 678.273865,443.603302 687.849670,450.747711 
z"/>
<path fill="#9CC0CD" opacity="1.000000" stroke="none" 
	d="
M661.081787,486.397827 
	C685.174805,495.727997 696.968628,514.198669 697.930603,539.657776 
	C699.030884,568.779419 699.582642,597.923035 700.220825,627.060486 
	C700.665894,647.379517 700.941162,667.703674 701.077271,688.026917 
	C701.100952,691.561462 702.668396,693.402954 705.351440,695.211243 
	C723.267944,707.286072 735.489197,723.256042 738.527649,745.180115 
	C740.215576,757.359314 739.116150,769.418701 735.820312,781.600220 
	C726.575745,784.370422 717.458801,786.700439 708.431274,789.336731 
	C693.186096,793.788879 677.997498,798.434753 662.394531,803.007324 
	C661.700562,697.633850 661.397095,592.252319 661.081787,486.397827 
z"/>
<path fill="#EE79C6" opacity="1.000000" stroke="none" 
	d="
M805.463745,764.672729 
	C802.057190,759.645569 798.982361,754.784973 796.171936,749.776062 
	C787.759033,734.782166 782.677795,718.625488 781.085693,701.581665 
	C779.866089,688.525452 779.217957,675.354553 779.371887,662.247070 
	C779.557678,646.424194 777.384888,631.127380 772.554382,616.118225 
	C768.663147,604.027649 769.128113,591.960388 772.595581,579.791992 
	C776.597107,565.749268 780.857849,551.727905 783.812134,537.450256 
	C789.768433,508.664215 785.646790,481.866028 765.707275,458.878510 
	C765.058228,458.130280 764.576599,457.236816 764.019958,455.765869 
	C767.798401,449.545898 771.442322,443.875793 775.394958,438.429688 
	C778.063965,434.752197 781.167969,431.390503 784.077454,427.887543 
	C799.487976,443.315094 808.565369,461.751831 812.393005,483.316193 
	C814.134827,493.129181 818.353760,502.587158 822.124084,511.933899 
	C826.781250,523.479065 832.140625,534.741028 837.117920,546.544617 
	C837.039246,546.963867 836.965637,547.043091 836.965637,547.043091 
	C829.026062,541.070312 821.086426,535.097473 812.421997,528.579407 
	C811.907288,531.133179 811.210815,533.112488 811.152100,535.110535 
	C810.634216,552.737305 809.954651,570.365845 809.856689,587.996826 
	C809.713562,613.771362 809.531982,639.561768 810.249756,665.320801 
	C811.049927,694.033386 812.353516,722.776733 819.990051,750.745239 
	C821.203430,755.189392 822.603699,759.582458 824.147278,764.771545 
	C817.723328,764.771545 811.819824,764.771545 805.463745,764.672729 
z"/>
<path fill="#DBF5F7" opacity="1.000000" stroke="none" 
	d="
M784.344238,427.618408 
	C781.167969,431.390503 778.063965,434.752197 775.394958,438.429688 
	C771.442322,443.875793 767.798401,449.545898 763.891113,455.428528 
	C754.121643,445.642303 744.122009,435.863586 734.963989,425.351746 
	C727.967468,417.321014 725.439697,407.187317 725.109741,396.615295 
	C724.933167,390.956451 724.769897,385.271240 725.102783,379.627563 
	C725.881226,366.427002 721.567871,355.096283 713.140625,345.159637 
	C697.130310,326.281586 677.025330,315.674957 651.105774,314.999817 
	C643.044861,314.981323 635.901001,314.975006 628.921021,314.667358 
	C632.851440,310.605347 636.608826,306.835449 640.386108,303.085724 
	C649.872314,293.668640 661.532471,290.826874 674.318054,292.740204 
	C682.295837,293.934082 690.107361,296.238434 697.997375,298.024597 
	C698.001221,298.004730 697.963684,298.020416 698.061401,298.325867 
	C698.773254,298.781006 699.387390,298.930695 700.190186,299.354126 
	C706.530151,303.392975 712.724426,307.090576 718.814087,310.953033 
	C721.685364,312.774139 724.356079,314.911530 727.117615,316.905609 
	C727.418335,318.067383 727.329163,319.690796 728.077393,320.322784 
	C743.418213,333.280212 752.475647,349.823853 755.900879,369.436310 
	C756.920593,375.275146 756.278015,381.411896 757.373230,387.228333 
	C759.375610,397.862213 767.128662,404.263031 775.879089,409.369537 
	C788.271790,416.601501 801.825439,420.167206 816.122742,421.045868 
	C817.730103,421.144623 819.309753,421.696259 820.904480,422.768829 
	C808.806641,424.295654 796.708801,425.822449 784.344238,427.618408 
z"/>
<path fill="#65DBE1" opacity="1.000000" stroke="none" 
	d="
M481.098663,221.999161 
	C483.775909,222.520172 486.453186,223.041183 489.423340,224.100922 
	C488.260162,228.171219 486.789612,231.696899 485.350433,235.235336 
	C476.486023,257.029358 465.391052,278.212402 466.481384,302.923767 
	C465.624176,303.629486 464.940399,304.160492 464.580627,304.858490 
	C457.949371,317.723572 449.144531,328.767944 437.771881,337.815125 
	C429.419678,344.459503 420.215546,350.757050 409.700378,350.545746 
	C394.745148,350.245148 383.450989,355.086090 373.926575,366.315125 
	C370.310638,370.578186 364.642639,373.220062 358.632568,371.279236 
	C347.432190,367.662292 344.355835,359.065186 348.467224,347.345215 
	C349.756989,343.668579 352.175018,340.387695 354.076599,336.925690 
	C362.647461,331.295898 371.218323,325.666138 380.617615,319.969910 
	C387.578583,319.906433 393.723907,320.161713 399.840698,319.852386 
	C408.675110,319.405548 416.666138,316.579437 423.415802,310.059692 
	C432.022583,302.815308 437.125275,294.014679 438.243958,282.658569 
	C438.979431,278.479248 439.473053,274.616272 439.966675,270.753326 
	C440.665131,268.423645 441.363586,266.093964 442.350342,263.194153 
	C443.418274,261.180084 444.263794,259.767426 444.967499,258.287354 
	C452.741913,241.935608 461.723175,226.796448 481.098663,221.999161 
z"/>
<path fill="#7EA0B5" opacity="1.000000" stroke="none" 
	d="
M639.269409,438.181580 
	C640.272217,441.657013 641.273376,445.559448 641.934326,449.518616 
	C642.807312,454.747925 643.018982,460.115082 644.234070,465.252899 
	C645.765808,471.730011 649.433105,477.089722 654.945251,481.465332 
	C654.707886,483.788483 654.073059,485.808960 653.978821,487.854340 
	C652.953247,510.128052 651.701843,532.405029 644.044434,553.623657 
	C630.741211,590.486511 608.751587,620.740417 576.118286,643.120972 
	C564.110107,651.356445 553.274658,661.439209 548.719910,675.873352 
	C546.313293,683.500122 546.055908,691.805115 544.860352,700.237671 
	C543.380920,697.037231 542.185913,693.229126 540.302185,689.799316 
	C532.722595,675.998535 524.930115,662.314697 517.004639,648.313965 
	C518.158569,646.995483 519.380615,645.619324 520.911499,644.955139 
	C545.848877,634.136169 568.773804,620.215576 587.832642,600.627380 
	C613.487549,574.259888 628.901611,542.479187 635.950867,506.583099 
	C640.001709,485.955414 641.259705,465.105743 639.184265,444.118103 
	C639.005066,442.305481 639.131775,440.462616 639.269409,438.181580 
z"/>
<path fill="#60498B" opacity="1.000000" stroke="none" 
	d="
M314.062897,642.682922 
	C319.791656,645.459534 325.520416,648.236084 331.604370,651.087891 
	C345.687408,659.036865 357.900604,668.665527 367.601349,681.990967 
	C368.317017,683.888245 368.677155,685.411865 368.719788,687.085449 
	C359.692688,691.018372 354.386200,697.671082 351.118652,706.508789 
	C347.557220,716.141541 340.972229,723.834045 332.127075,728.770935 
	C316.270142,737.621460 299.967529,745.673584 283.851166,754.059387 
	C281.542694,749.950623 278.200104,748.512939 273.382294,747.639099 
	C268.117493,746.684387 263.340607,743.039612 258.341736,739.955750 
	C260.286224,733.739685 262.239990,728.135193 264.480072,722.732666 
	C270.879913,729.003113 277.594971,730.761841 284.126617,728.005127 
	C290.628937,725.260803 295.360504,718.119202 294.897583,711.008118 
	C294.806793,709.613342 293.193939,707.477905 291.900574,707.137573 
	C283.570465,704.945618 283.063873,704.585571 281.938904,696.107910 
	C284.844299,693.758362 287.811707,691.793823 289.828918,689.114075 
	C295.177917,682.007996 300.168488,674.628601 305.203705,667.290771 
	C310.292114,659.875305 314.679596,652.169678 314.062897,642.682922 
z"/>
<path fill="#564286" opacity="1.000000" stroke="none" 
	d="
M534.756714,329.042847 
	C534.157532,329.721069 533.558350,330.399261 532.576538,330.790039 
	C534.219116,325.684967 532.825134,321.431427 530.061646,317.387024 
	C529.895142,317.143402 530.040100,316.706238 529.915161,316.412262 
	C527.460632,310.636963 528.197693,304.535828 527.682007,298.514679 
	C526.900513,289.389038 524.148743,280.449493 522.990295,271.334717 
	C521.307007,258.090240 520.212952,244.767624 519.033081,231.463654 
	C518.375427,224.048172 518.266846,216.645950 512.130920,210.962234 
	C510.160004,209.136536 509.249329,206.161621 507.870850,203.702805 
	C507.020996,202.186874 506.203674,200.652710 504.735535,197.959717 
	C503.210846,202.856781 502.095398,206.439453 500.614471,210.012756 
	C499.113892,209.252457 497.978790,208.501556 496.843689,207.750641 
	C504.567780,189.373642 512.287231,170.994690 520.037842,152.628876 
	C520.277161,152.061798 520.839661,151.631149 521.586548,150.734726 
	C533.715515,171.712784 539.160706,194.739288 546.140381,217.985657 
	C549.242920,232.460327 552.220642,246.189102 555.131104,260.356201 
	C556.839783,275.528259 554.758362,289.813232 549.790222,304.038055 
	C546.154785,313.463806 541.093323,321.633423 534.756714,329.042847 
z"/>
<path fill="#513D83" opacity="1.000000" stroke="none" 
	d="
M283.942017,754.393433 
	C299.967529,745.673584 316.270142,737.621460 332.127075,728.770935 
	C340.972229,723.834045 347.557220,716.141541 351.118652,706.508789 
	C354.386200,697.671082 359.692688,691.018372 369.056824,687.156799 
	C371.486084,689.070251 373.260803,691.062378 375.021851,693.463989 
	C377.110474,698.984131 379.212799,704.094971 381.315125,709.205750 
	C381.208832,710.673401 380.788696,712.199219 381.047943,713.599182 
	C382.556488,721.744629 384.213959,729.862610 385.844147,737.985229 
	C386.477539,741.141418 385.350983,743.029724 382.498810,744.804626 
	C364.181641,756.203186 346.062714,767.920776 327.719208,779.275879 
	C325.641968,780.561768 322.335144,781.135559 319.998077,780.520752 
	C304.797211,776.521484 292.751648,767.884766 283.942017,754.393433 
z"/>
<path fill="#4FBDC8" opacity="1.000000" stroke="none" 
	d="
M697.993530,298.044434 
	C690.107361,296.238434 682.295837,293.934082 674.318054,292.740204 
	C661.532471,290.826874 649.872314,293.668640 640.386108,303.085724 
	C636.608826,306.835449 632.851440,310.605347 628.530579,314.674438 
	C616.208191,318.054443 602.171326,311.285828 594.760681,299.581818 
	C587.781799,288.559723 580.293884,277.859924 573.305420,266.835815 
	C579.950256,261.076416 586.217163,255.376007 592.733337,249.976318 
	C595.850830,247.392975 599.440796,245.379715 602.816772,243.108246 
	C603.301392,243.444351 603.786072,243.780457 604.719788,244.428909 
	C605.786621,245.106812 606.404358,245.472366 607.304993,246.035233 
	C621.509155,255.956894 636.741638,261.752228 653.911804,262.116150 
	C655.973206,262.159851 658.312317,263.310272 659.990234,264.626526 
	C665.460999,268.918030 670.778137,273.418884 675.981445,278.034241 
	C683.399109,284.613770 690.663635,291.365967 697.993530,298.044434 
z"/>
<path fill="#6E5292" opacity="1.000000" stroke="none" 
	d="
M496.571289,207.984070 
	C497.978790,208.501556 499.113892,209.252457 500.657837,210.369400 
	C502.376465,213.896347 504.668610,217.008789 504.827332,220.226486 
	C505.545685,234.788925 505.809204,249.379913 505.928375,263.963135 
	C505.983704,270.731445 505.016113,277.508087 505.071655,284.276398 
	C505.200928,300.022766 505.764130,315.765289 505.943115,331.511749 
	C505.996399,336.199127 507.810577,341.615906 502.107880,344.744812 
	C501.950867,344.830933 502.045929,345.376343 502.023438,345.707611 
	C493.917023,345.496124 487.915466,341.079071 482.783600,335.485382 
	C479.325684,331.716248 476.552338,327.319031 473.237701,322.564087 
	C470.936981,315.559174 468.871307,309.193024 466.805664,302.826843 
	C465.391052,278.212402 476.486023,257.029358 485.350433,235.235336 
	C486.789612,231.696899 488.260162,228.171219 489.741943,224.281921 
	C491.944702,218.688644 494.121796,213.453079 496.571289,207.984070 
z"/>
<path fill="#489DB0" opacity="1.000000" stroke="none" 
	d="
M466.481384,302.923767 
	C468.871307,309.193024 470.936981,315.559174 473.027161,322.280029 
	C462.739746,333.700531 452.425140,344.763885 442.119537,355.835602 
	C440.985748,357.053711 439.754272,358.217804 438.822693,359.580933 
	C434.392273,366.063477 428.659332,368.721069 420.513489,369.957581 
	C393.629913,374.038330 374.798737,390.063873 361.800720,413.451965 
	C360.995697,414.900543 360.106934,416.302643 358.923706,417.900146 
	C359.568878,412.127258 361.192200,406.197113 361.345886,400.229156 
	C361.501312,394.191498 357.458557,389.665131 352.858704,386.169617 
	C341.581543,377.599854 338.295197,364.316345 332.555328,352.475708 
	C332.290344,351.929047 332.664032,351.072784 332.868896,349.159180 
	C335.512360,352.629425 337.503357,355.243103 340.151764,358.719818 
	C342.714264,337.830261 345.158051,317.908203 347.601868,297.986145 
	C347.945557,298.027100 348.289276,298.068024 348.632996,298.108978 
	C350.426239,310.763306 352.219513,323.417603 354.044678,336.498810 
	C352.175018,340.387695 349.756989,343.668579 348.467224,347.345215 
	C344.355835,359.065186 347.432190,367.662292 358.632568,371.279236 
	C364.642639,373.220062 370.310638,370.578186 373.926575,366.315125 
	C383.450989,355.086090 394.745148,350.245148 409.700378,350.545746 
	C420.215546,350.757050 429.419678,344.459503 437.771881,337.815125 
	C449.144531,328.767944 457.949371,317.723572 464.580627,304.858490 
	C464.940399,304.160492 465.624176,303.629486 466.481384,302.923767 
z"/>
<path fill="#7BF4F1" opacity="1.000000" stroke="none" 
	d="
M697.997375,298.024597 
	C690.663635,291.365967 683.399109,284.613770 675.981445,278.034241 
	C670.778137,273.418884 665.460999,268.918030 659.990234,264.626526 
	C658.312317,263.310272 655.973206,262.159851 653.911804,262.116150 
	C636.741638,261.752228 621.509155,255.956894 607.572754,245.788422 
	C610.729675,244.362061 613.901794,243.379807 617.073914,242.397552 
	C617.804871,242.291138 618.535767,242.184723 619.902588,242.342606 
	C623.718384,241.898666 626.898254,241.190414 630.078186,240.482178 
	C631.122314,240.343613 632.166382,240.205048 633.810364,240.313660 
	C635.280762,240.343597 636.151367,240.126328 637.021912,239.909058 
	C638.124817,239.648514 639.227661,239.387970 640.896118,239.361053 
	C642.668213,239.217651 643.874634,238.840637 645.081116,238.463638 
	C646.448120,238.316376 647.815186,238.169113 649.754456,238.253525 
	C650.891235,238.292923 651.455811,238.100632 652.020325,237.908340 
	C653.442444,237.617889 654.864563,237.327423 656.869690,237.299133 
	C658.660217,237.164246 659.867798,236.767197 661.075317,236.370148 
	C661.811096,236.270859 662.546875,236.171570 663.913696,236.340805 
	C666.018982,236.745651 667.493103,236.881958 668.967285,237.018280 
	C672.217163,240.125320 675.466980,243.232361 678.967407,246.869202 
	C679.498718,247.582642 679.779480,247.766266 680.060242,247.949905 
	C680.060242,247.949905 680.000488,248.000000 680.114624,248.207748 
	C680.510559,248.587830 680.792236,248.760147 681.073975,248.932495 
	C681.073975,248.932495 681.001770,249.000000 681.119324,249.202179 
	C681.517761,249.577988 681.798706,249.751602 682.079590,249.925217 
	C682.079590,249.925217 682.002441,250.001068 682.121094,250.201187 
	C682.520813,250.573929 682.801941,250.746567 683.083069,250.919205 
	C683.083069,250.919205 683.002441,251.000992 683.122131,251.200165 
	C683.522888,251.571884 683.804016,251.744415 684.085083,251.916931 
	C684.085083,251.916931 684.002441,252.000854 684.122864,252.199310 
	C684.524841,252.569382 684.806458,252.740997 685.088013,252.912628 
	C685.088013,252.912613 685.000000,253.000610 685.122986,253.197815 
	C685.527649,253.565857 685.809387,253.736710 686.091064,253.907578 
	C686.091064,253.907578 686.000000,253.999390 686.124390,254.195618 
	C686.531128,254.559723 686.813599,254.727600 687.096008,254.895493 
	C687.096008,254.895493 686.996277,254.981689 687.139343,255.195724 
	C687.594055,255.562607 687.905762,255.715469 688.217407,255.868317 
	C690.376526,257.714447 692.535706,259.560547 694.878967,262.043091 
	C696.739380,264.089905 698.415710,265.500244 700.091980,266.910583 
	C700.091980,266.910583 700.094299,266.952179 700.164673,267.178833 
	C700.515747,267.580688 700.796448,267.755920 701.077087,267.931122 
	C701.077087,267.931122 701.003174,268.001282 701.119751,268.202637 
	C701.517273,268.578583 701.798157,268.753143 702.079041,268.927704 
	C702.079041,268.927704 702.002441,269.000916 702.120728,269.201263 
	C702.519836,269.575714 702.800720,269.749847 703.081543,269.923950 
	C703.081543,269.923950 703.002441,270.000641 703.122314,270.199707 
	C703.524902,270.567902 703.807678,270.737030 704.090393,270.906158 
	C704.090393,270.906158 704.000000,270.998779 704.124268,271.195862 
	C704.530334,271.562347 704.812256,271.731781 705.094116,271.901184 
	C705.094116,271.901215 705.000000,271.997559 705.125732,272.193817 
	C705.533508,272.558594 705.815613,272.727112 706.097656,272.895630 
	C706.097656,272.895630 705.998413,272.982971 706.141174,273.196381 
	C706.597473,273.561188 706.911011,273.712585 707.224548,273.863983 
	C711.052185,277.366730 714.879822,280.869476 718.889465,285.009460 
	C720.072876,286.407043 721.074341,287.167389 722.075806,287.927765 
	C722.075806,287.927765 722.070801,287.973999 722.151367,288.193146 
	C722.513367,288.584656 722.794922,288.756989 723.076416,288.929352 
	C723.076416,288.929352 723.000000,288.998779 723.120422,289.199768 
	C723.522949,289.571350 723.805054,289.741943 724.087158,289.912537 
	C724.087158,289.912537 724.000000,290.000000 724.122681,290.197693 
	C724.526306,290.567230 724.807190,290.739044 725.088074,290.910858 
	C725.088074,290.910858 725.000000,290.998779 725.123169,291.196960 
	C725.527039,291.566772 725.807861,291.738373 726.088623,291.909973 
	C726.088623,291.909973 726.000000,291.998779 726.123291,292.196655 
	C726.528198,292.564392 726.809753,292.734222 727.091309,292.904022 
	C727.091309,292.904022 727.000000,292.998779 727.125732,293.194519 
	C727.533203,293.558258 727.814880,293.726227 728.096619,293.894226 
	C728.096619,293.894226 727.999634,293.992828 728.127441,294.189880 
	C728.537231,294.552948 728.819153,294.718964 729.101135,294.884979 
	C729.101135,294.884979 729.003052,294.987244 729.130981,295.185486 
	C729.540527,295.549408 729.822083,295.715057 730.103699,295.880676 
	C730.103699,295.880676 729.993164,295.961884 730.143372,296.184021 
	C730.608276,296.555176 730.922913,296.704163 731.237610,296.853149 
	C732.728455,298.036194 734.219360,299.219238 735.888062,301.033630 
	C737.398438,302.757080 738.731018,303.849182 740.063599,304.941284 
	C740.063599,304.941284 740.051208,304.989929 740.139160,305.203735 
	C740.505981,305.593048 740.784912,305.768555 741.063843,305.944061 
	C741.063843,305.944061 741.002441,306.000244 741.117126,306.205994 
	C741.512146,306.585724 741.792419,306.759674 742.072754,306.933655 
	C742.072754,306.933655 742.002441,307.000000 742.119080,307.203003 
	C742.515991,307.580231 742.796326,307.754486 743.076599,307.928741 
	C743.076599,307.928741 743.002441,308.000854 743.120728,308.201813 
	C743.520325,308.575073 743.801697,308.747375 744.083008,308.919678 
	C744.083008,308.919678 744.000000,309.000000 744.122070,309.198792 
	C744.526550,309.566956 744.809021,309.736359 745.091492,309.905762 
	C745.091492,309.905762 745.000000,309.998779 745.124268,310.195648 
	C745.530090,310.562805 745.811584,310.733063 746.093140,310.903320 
	C746.093140,310.903320 746.000000,310.997559 746.124878,311.194366 
	C746.531189,311.561249 746.812561,311.731323 747.093933,311.901428 
	C747.093933,311.901428 746.999451,311.996338 747.125122,312.193420 
	C747.532043,312.560181 747.813293,312.729858 748.094482,312.899536 
	C748.094482,312.899536 748.000000,312.985779 748.140625,313.198059 
	C748.593018,313.562347 748.904907,313.714355 749.216736,313.866394 
	C751.038818,315.391571 752.860962,316.916748 754.943115,318.950989 
	C755.402954,319.737976 755.669739,319.914795 756.003479,319.990570 
	C756.319092,320.094666 756.581848,320.275513 757.003723,320.978088 
	C757.492065,321.600616 757.768433,321.778198 758.044800,321.955750 
	C758.044800,321.955750 758.029724,321.972534 758.055298,322.309601 
	C759.410950,323.740662 760.740967,324.834656 762.070984,325.928650 
	C762.070984,325.928650 762.060364,325.960083 762.146179,326.186768 
	C762.511169,326.586487 762.790405,326.759491 763.069580,326.932495 
	C763.069580,326.932526 763.000000,327.000000 763.118408,327.203125 
	C763.515564,327.580231 763.794189,327.754272 764.072876,327.928284 
	C764.072876,327.928284 764.000000,328.000000 764.119751,328.201843 
	C764.518921,328.576111 764.798279,328.748535 765.077637,328.920959 
	C765.077637,328.920959 765.000000,329.000000 765.122681,329.199097 
	C765.525818,329.567505 765.806274,329.736816 766.086792,329.906128 
	C766.086792,329.906128 766.115417,329.910950 766.081299,330.318665 
	C766.104797,332.992859 766.213135,335.296143 762.873108,335.092712 
	C751.185242,329.073822 739.497375,323.054932 727.463562,316.970825 
	C724.356079,314.911530 721.685364,312.774139 718.814087,310.953033 
	C712.724426,307.090576 706.530151,303.392975 700.022827,299.094177 
	C699.099182,298.380493 698.531433,298.200470 697.963684,298.020447 
	C697.963684,298.020416 698.001221,298.004730 697.997375,298.024597 
z"/>
<path fill="#479BB0" opacity="1.000000" stroke="none" 
	d="
M327.545837,504.108673 
	C333.712860,508.993713 339.415039,514.080811 345.416992,518.785522 
	C347.680603,520.559814 347.982117,521.949890 347.012634,524.549194 
	C334.021393,559.379578 321.141815,594.251648 308.244293,629.117004 
	C307.323578,631.605957 306.479004,634.123169 304.952271,636.855164 
	C296.728058,633.319885 289.150574,629.556580 281.573120,625.793335 
	C289.454102,604.250793 297.300018,582.695312 305.227051,561.169739 
	C311.719116,543.540894 318.291229,525.941528 324.883881,508.350037 
	C325.438110,506.871216 326.418060,505.551971 327.545837,504.108673 
z"/>
<path fill="#705593" opacity="1.000000" stroke="none" 
	d="
M281.354889,626.060486 
	C289.150574,629.556580 296.728058,633.319885 304.694824,637.112915 
	C307.932587,638.822083 310.780975,640.501465 313.846130,642.431885 
	C314.679596,652.169678 310.292114,659.875305 305.203705,667.290771 
	C300.168488,674.628601 295.177917,682.007996 289.828918,689.114075 
	C287.811707,691.793823 284.844299,693.758362 281.534851,696.001038 
	C264.602600,695.494934 256.850464,707.932251 264.193787,722.530701 
	C262.239990,728.135193 260.286224,733.739685 258.168030,739.666687 
	C240.948135,726.602417 240.313293,701.848816 256.388489,686.101807 
	C258.856598,683.684082 260.838348,680.414734 262.090912,677.170776 
	C268.609528,660.288696 274.819336,643.287415 281.354889,626.060486 
z"/>
<path fill="#3C2E72" opacity="1.000000" stroke="none" 
	d="
M381.678009,709.153931 
	C379.212799,704.094971 377.110474,698.984131 375.376831,693.404602 
	C396.228333,683.610596 416.718414,674.301270 437.191406,664.954407 
	C450.810913,658.736511 453.532074,651.928162 448.025177,638.062866 
	C450.591797,635.458618 451.277252,637.969299 452.154053,639.639832 
	C456.896393,648.674866 461.599396,657.730591 466.592163,666.997681 
	C467.530823,668.897949 468.193268,670.579712 469.097809,672.876038 
	C440.089569,684.946960 411.065216,697.024536 381.678009,709.153931 
z"/>
<path fill="#CF6ABD" opacity="1.000000" stroke="none" 
	d="
M481.211487,221.678772 
	C461.723175,226.796448 452.741913,241.935608 444.967499,258.287354 
	C444.263794,259.767426 443.418274,261.180084 442.352783,262.809021 
	C432.022919,244.130646 421.978973,225.267319 411.651093,205.870804 
	C415.851837,206.731125 420.263428,207.526154 424.621490,208.549149 
	C434.484711,210.864410 444.274841,213.524826 454.200867,215.515533 
	C456.781708,216.033127 460.238007,215.360565 462.463623,213.938171 
	C473.536621,206.861313 484.332947,199.351517 495.637085,192.017975 
	C496.047455,192.041794 496.178558,192.171295 496.178528,192.171295 
	C491.227142,201.900314 486.275726,211.629349 481.211487,221.678772 
z"/>
<path fill="#9AF6F4" opacity="1.000000" stroke="none" 
	d="
M602.714050,242.792084 
	C599.440796,245.379715 595.850830,247.392975 592.733337,249.976318 
	C586.217163,255.376007 579.950256,261.076416 573.001831,266.690308 
	C567.733948,262.451050 563.563477,257.387207 556.762329,256.071136 
	C556.162415,257.546722 555.680359,258.732300 555.198364,259.917847 
	C552.220642,246.189102 549.242920,232.460327 546.260681,218.357697 
	C565.398132,219.274719 582.773071,225.107483 597.436340,237.903305 
	C599.170654,239.416794 600.886780,240.951218 602.714050,242.792084 
z"/>
<path fill="#60498B" opacity="1.000000" stroke="none" 
	d="
M378.921631,300.408142 
	C377.932220,299.937744 376.366333,299.713837 376.043365,298.958496 
	C373.115143,292.110413 370.372620,285.181671 367.679474,278.236328 
	C367.416687,277.558563 367.850159,276.610809 368.299622,275.279480 
	C374.757690,269.176483 380.876556,263.582397 387.217712,257.961304 
	C387.440002,257.934296 387.880035,257.851196 388.045288,258.160400 
	C392.803497,265.620422 397.396515,272.771240 401.851562,280.229889 
	C394.116241,287.161194 386.518951,293.784668 378.921631,300.408142 
z"/>
<path fill="#60498B" opacity="1.000000" stroke="none" 
	d="
M423.107941,310.197021 
	C416.666138,316.579437 408.675110,319.405548 399.840698,319.852386 
	C393.723907,320.161713 387.578583,319.906433 380.938080,319.935364 
	C381.283173,316.945618 382.136200,313.923950 383.283142,310.280151 
	C384.845978,308.352112 386.051331,306.976471 387.394684,305.752228 
	C393.910614,299.813782 400.463562,293.915985 407.229309,287.976685 
	C407.455170,287.949554 407.903656,287.873138 408.056549,288.189453 
	C413.175629,295.736206 418.141785,302.966614 423.107941,310.197021 
z"/>
<path fill="#392A6C" opacity="1.000000" stroke="none" 
	d="
M423.415802,310.059692 
	C418.141785,302.966614 413.175629,295.736206 408.218262,287.898407 
	C412.984283,282.970184 417.683289,278.582458 422.530792,274.365417 
	C424.191681,272.920532 426.224457,271.903076 428.087372,270.690369 
	C428.487610,270.860687 428.887848,271.030975 429.647034,271.670349 
	C432.671356,275.751282 435.336700,279.363098 438.002075,282.974915 
	C437.125275,294.014679 432.022583,302.815308 423.415802,310.059692 
z"/>
<path fill="#60498B" opacity="1.000000" stroke="none" 
	d="
M363.950409,265.802460 
	C362.355804,264.887421 359.954895,264.356323 359.304993,262.991455 
	C356.356201,256.798767 353.901245,250.370941 351.474121,243.420349 
	C352.773346,241.395874 353.725922,239.836090 354.987427,238.588821 
	C358.605438,235.011673 362.348633,231.561157 366.265686,228.021820 
	C366.488739,227.982773 366.935852,227.910629 367.076477,228.229828 
	C372.158600,235.429291 377.100067,242.309540 382.028168,249.372986 
	C382.014801,249.556152 381.978149,249.921875 381.656494,250.029083 
	C375.540039,255.358368 369.745209,260.580414 363.950409,265.802460 
z"/>
<path fill="#392A6C" opacity="1.000000" stroke="none" 
	d="
M401.989532,279.922058 
	C397.396515,272.771240 392.803497,265.620422 388.182159,257.856964 
	C392.772949,252.768280 397.392059,248.292236 402.011200,243.816193 
	C402.669586,243.857590 403.596405,243.630432 403.946472,243.980301 
	C410.018433,250.049072 417.443848,255.064667 419.502441,264.582581 
	C413.754211,270.021149 408.352264,274.916412 402.711426,279.850830 
	C402.472565,279.889923 401.989532,279.922058 401.989532,279.922058 
z"/>
<path fill="#3C2E72" opacity="1.000000" stroke="none" 
	d="
M382.041534,249.189804 
	C377.100067,242.309540 372.158600,235.429291 367.241089,227.940735 
	C371.170654,223.500595 375.076233,219.668747 378.981812,215.836899 
	C380.443390,216.418762 382.328094,216.609360 383.291931,217.651550 
	C387.081360,221.748978 390.936462,225.877029 394.019409,230.493149 
	C395.317535,232.436920 394.758301,235.621201 394.632782,238.714432 
	C390.161987,242.521454 386.101746,245.855637 382.041534,249.189804 
z"/>
<path fill="#60498B" opacity="1.000000" stroke="none" 
	d="
M346.989441,231.969864 
	C345.486938,231.032867 343.327759,230.450668 342.596436,229.097031 
	C339.545807,223.450516 336.924530,217.572037 334.394653,211.195511 
	C338.441711,206.756104 342.239960,202.899780 346.243835,199.023087 
	C346.449432,199.002701 346.861572,198.972702 347.148315,199.157501 
	C351.966919,206.277023 356.498779,213.211761 361.031250,220.353577 
	C361.031830,220.560654 360.980408,220.971954 360.684570,221.127960 
	C355.922302,224.845932 351.455872,228.407898 346.989441,231.969864 
z"/>
<path fill="#392A6C" opacity="1.000000" stroke="none" 
	d="
M361.030670,220.146500 
	C356.498779,213.211761 351.966919,206.277023 347.288208,198.846954 
	C350.094513,195.480713 353.047668,192.609818 356.000793,189.738922 
	C356.492035,189.672424 357.016541,189.459244 357.469391,189.561996 
	C362.278259,190.653046 372.899200,204.053650 372.698853,209.720993 
	C368.590454,213.585770 364.810577,216.866135 361.030670,220.146500 
z"/>
<path fill="#594689" opacity="1.000000" stroke="none" 
	d="
M329.951324,200.610504 
	C323.649994,194.703735 320.455933,187.241211 319.421173,178.304428 
	C322.067444,175.792252 324.360901,173.849869 327.025665,171.942245 
	C328.686493,173.150955 330.216675,174.149582 331.222687,175.530151 
	C334.959595,180.658569 338.524017,185.912674 342.101257,191.312592 
	C342.049286,191.505569 341.971161,191.898026 341.630219,191.957855 
	C337.509979,194.881943 333.730652,197.746216 329.951324,200.610504 
z"/>
<path fill="#392A6C" opacity="1.000000" stroke="none" 
	d="
M342.153229,191.119583 
	C338.524017,185.912674 334.959595,180.658569 331.222687,175.530151 
	C330.216675,174.149582 328.686493,173.150955 327.175110,171.687469 
	C327.304840,170.936920 327.656372,170.475906 328.314819,169.890381 
	C330.412720,167.826279 332.203705,165.886703 333.994720,163.947113 
	C334.807129,163.914383 335.896118,163.522598 336.390137,163.903168 
	C343.021912,169.012177 349.632202,174.180817 351.169708,183.719391 
	C347.961731,186.618546 345.057465,188.869064 342.153229,191.119583 
z"/>
<path fill="#D7DDE8" opacity="1.000000" stroke="none" 
	d="
M401.851562,280.229889 
	C401.989532,279.922058 402.472565,279.889923 402.853424,280.175049 
	C404.490662,282.974701 405.747040,285.489227 407.003418,288.003784 
	C400.463562,293.915985 393.910614,299.813782 387.394684,305.752228 
	C386.051331,306.976471 384.845978,308.352112 383.307678,309.855347 
	C381.673431,307.069092 380.308563,304.085419 378.932678,300.754944 
	C386.518951,293.784668 394.116241,287.161194 401.851562,280.229889 
z"/>
<path fill="#D7DDE8" opacity="1.000000" stroke="none" 
	d="
M364.102600,266.128510 
	C369.745209,260.580414 375.540039,255.358368 381.804077,250.336334 
	C383.847382,253.020325 385.421387,255.504303 386.995422,257.988281 
	C380.876556,263.582397 374.757690,269.176483 368.347595,274.935547 
	C366.789185,272.218536 365.521973,269.336548 364.102600,266.128510 
z"/>
<path fill="#392A6C" opacity="1.000000" stroke="none" 
	d="
M314.993561,139.015472 
	C321.388000,144.564255 329.027832,149.228577 328.929993,159.630981 
	C326.758118,161.210342 324.939514,162.295792 322.990845,163.046295 
	C320.719757,159.833832 318.664215,156.887405 316.414948,154.097137 
	C313.891327,150.966522 311.192596,147.977051 308.755219,144.627960 
	C310.958099,142.558334 312.975830,140.786896 314.993561,139.015472 
z"/>
<path fill="#513D83" opacity="1.000000" stroke="none" 
	d="
M308.570068,144.926178 
	C311.192596,147.977051 313.891327,150.966522 316.414948,154.097137 
	C318.664215,156.887405 320.719757,159.833832 322.974487,163.203247 
	C323.088226,163.695145 323.024139,164.005051 322.704834,164.082397 
	C320.570496,165.560883 318.755493,166.962036 316.940460,168.363190 
	C313.587921,169.540939 311.547150,167.770523 310.154633,165.092667 
	C308.036896,161.020218 306.117340,156.844727 304.100922,152.007324 
	C305.582184,149.176514 307.076141,147.051346 308.570068,144.926178 
z"/>
<path fill="#AEC1D4" opacity="1.000000" stroke="none" 
	d="
M407.229309,287.976685 
	C405.747040,285.489227 404.490662,282.974701 403.092285,280.135925 
	C408.352264,274.916412 413.754211,270.021149 419.433838,264.945007 
	C422.401245,266.540253 425.090942,268.316345 427.934021,270.391418 
	C426.224457,271.903076 424.191681,272.920532 422.530792,274.365417 
	C417.683289,278.582458 412.984283,282.970184 408.065369,287.582092 
	C407.903656,287.873138 407.455170,287.949554 407.229309,287.976685 
z"/>
<path fill="#D7DDE8" opacity="1.000000" stroke="none" 
	d="
M347.141602,232.295044 
	C351.455872,228.407898 355.922302,224.845932 360.989990,221.273102 
	C363.075012,223.528427 364.558807,225.794632 366.042603,228.060852 
	C362.348633,231.561157 358.605438,235.011673 354.987427,238.588821 
	C353.725922,239.836090 352.773346,241.395874 351.442688,243.062042 
	C349.901703,239.747498 348.597717,236.183853 347.141602,232.295044 
z"/>
<path fill="#AEC1D4" opacity="1.000000" stroke="none" 
	d="
M387.217712,257.961304 
	C385.421387,255.504303 383.847382,253.020325 382.125732,250.229111 
	C381.978149,249.921875 382.014801,249.556152 382.028168,249.372986 
	C386.101746,245.855637 390.161987,242.521454 394.535706,239.085022 
	C397.213684,240.370987 399.578156,241.759201 401.976929,243.481796 
	C397.392059,248.292236 392.772949,252.768280 388.016907,257.547760 
	C387.880035,257.851196 387.440002,257.934296 387.217712,257.961304 
z"/>
<path fill="#3C2E72" opacity="1.000000" stroke="none" 
	d="
M292.929016,130.089783 
	C292.072235,126.211288 291.215424,122.332794 290.410492,118.689217 
	C283.273315,114.682259 282.376862,107.276733 280.824097,100.166885 
	C285.849548,104.674561 292.960205,107.396111 293.321442,115.768997 
	C293.355103,116.550049 295.160339,117.254684 296.335480,118.334335 
	C295.685974,119.782326 294.843994,120.890785 293.849152,122.318542 
	C293.440552,125.121826 293.184784,127.605804 292.929016,130.089783 
z"/>
<path fill="#D7DDE8" opacity="1.000000" stroke="none" 
	d="
M329.989258,201.006378 
	C333.730652,197.746216 337.509979,194.881943 341.776489,192.269714 
	C343.521881,194.695679 344.780060,196.869583 346.038208,199.043488 
	C342.239960,202.899780 338.441711,206.756104 334.391174,210.824295 
	C332.768311,207.824875 331.397736,204.613571 329.989258,201.006378 
z"/>
<path fill="#AEC1D4" opacity="1.000000" stroke="none" 
	d="
M366.265686,228.021805 
	C364.558807,225.794632 363.075012,223.528427 361.285828,221.117096 
	C360.980408,220.971954 361.031830,220.560654 361.031250,220.353577 
	C364.810577,216.866135 368.590454,213.585770 372.642578,210.118683 
	C374.802612,211.729660 376.690399,213.527359 378.780029,215.580994 
	C375.076233,219.668747 371.170654,223.500595 367.100464,227.621536 
	C366.935852,227.910629 366.488739,227.982773 366.265686,228.021805 
z"/>
<path fill="#47357C" opacity="1.000000" stroke="none" 
	d="
M292.949158,130.064270 
	C293.184784,127.605804 293.440552,125.121826 294.199493,122.357422 
	C298.488739,127.479073 302.274780,132.881165 305.887787,138.521896 
	C304.833069,139.180771 303.951355,139.601013 302.620911,140.017166 
	C300.982971,140.155960 299.793732,140.298828 298.604492,140.441681 
	C298.604492,140.441681 298.624176,140.426132 298.663879,140.098541 
	C298.156708,139.183212 297.609833,138.595490 297.062927,138.007767 
	C297.062927,138.007767 296.821686,137.813858 296.857178,137.284683 
	C296.466492,136.224182 296.040283,135.692856 295.614105,135.161530 
	C295.614105,135.161530 295.809052,135.130508 295.772491,134.949677 
	C295.489624,134.510056 295.243317,134.251297 294.997009,133.992538 
	C294.997009,133.992538 294.821106,133.833450 294.806763,133.403137 
	C294.516907,132.652496 294.241394,132.332184 293.965881,132.011871 
	C293.965881,132.011871 294.006744,132.009872 293.964966,131.718124 
	C293.583832,130.960724 293.244476,130.495071 292.905151,130.029419 
	C292.905151,130.029419 292.969330,130.038742 292.949158,130.064270 
z"/>
<path fill="#392A6C" opacity="1.000000" stroke="none" 
	d="
M306.060822,138.283249 
	C302.274780,132.881165 298.488739,127.479073 294.352356,122.038116 
	C294.843994,120.890785 295.685974,119.782326 296.726501,118.430862 
	C302.972900,120.639832 309.925354,129.768188 309.508453,135.726807 
	C308.122711,136.946594 307.091766,137.614914 306.060822,138.283249 
z"/>
<path fill="#AEC1D4" opacity="1.000000" stroke="none" 
	d="
M346.243835,199.023102 
	C344.780060,196.869583 343.521881,194.695679 342.117432,192.209900 
	C341.971161,191.898026 342.049286,191.505569 342.101257,191.312561 
	C345.057465,188.869064 347.961731,186.618546 351.129395,184.126450 
	C352.905060,185.622177 354.417267,187.359482 355.965149,189.417847 
	C353.047668,192.609818 350.094513,195.480713 347.001465,198.662155 
	C346.861572,198.972702 346.449432,199.002701 346.243835,199.023102 
z"/>
<path fill="#D7DDE8" opacity="1.000000" stroke="none" 
	d="
M316.943817,168.818665 
	C318.755493,166.962036 320.570496,165.560883 323.047424,164.133331 
	C325.142212,166.076248 326.575073,168.045578 328.007904,170.014908 
	C327.656372,170.475906 327.304840,170.936920 326.803833,171.652710 
	C324.360901,173.849869 322.067444,175.792252 319.496094,177.898193 
	C318.461212,175.132553 317.704193,172.203354 316.943817,168.818665 
z"/>
<path fill="#AEC1D4" opacity="1.000000" stroke="none" 
	d="
M305.887787,138.521896 
	C307.091766,137.614914 308.122711,136.946594 309.422729,136.127106 
	C311.291046,136.842636 312.890289,137.709320 314.741547,138.795731 
	C312.975830,140.786896 310.958099,142.558334 308.755219,144.627960 
	C307.076141,147.051346 305.582184,149.176514 304.016693,151.652344 
	C303.335327,148.709061 302.725494,145.415085 302.176819,141.513611 
	C302.515198,140.611160 302.792419,140.316193 303.069641,140.021240 
	C303.951355,139.601013 304.833069,139.180771 305.887787,138.521896 
z"/>
<path fill="#9AF6F4" opacity="1.000000" stroke="none" 
	d="
M763.102417,335.352081 
	C766.213135,335.296143 766.104797,332.992859 766.088501,330.306061 
	C770.491821,333.736481 774.853821,337.587280 779.215820,341.438080 
	C778.863403,341.937012 778.510986,342.435974 778.158569,342.934937 
	C773.216309,340.493805 768.273987,338.052643 763.102417,335.352081 
z"/>
<path fill="#AEC1D4" opacity="1.000000" stroke="none" 
	d="
M328.314819,169.890381 
	C326.575073,168.045578 325.142212,166.076248 323.366760,164.055969 
	C323.024139,164.005051 323.088226,163.695145 323.104553,163.538193 
	C324.939514,162.295792 326.758118,161.210342 328.929077,160.058533 
	C330.777954,161.109222 332.274414,162.226273 333.882812,163.645233 
	C332.203705,165.886703 330.412720,167.826279 328.314819,169.890381 
z"/>
<path fill="#489DB0" opacity="1.000000" stroke="none" 
	d="
M438.243958,282.658569 
	C435.336700,279.363098 432.671356,275.751282 429.930328,271.833588 
	C432.959076,271.321747 436.063538,271.115723 439.567322,270.831512 
	C439.473053,274.616272 438.979431,278.479248 438.243958,282.658569 
z"/>
<path fill="#9AF6F4" opacity="1.000000" stroke="none" 
	d="
M616.670288,242.301697 
	C613.901794,243.379807 610.729675,244.362061 607.289795,245.591110 
	C606.404358,245.472366 605.786621,245.106812 605.001648,244.529205 
	C608.645142,243.613388 612.455872,242.909607 616.670288,242.301697 
z"/>
<path fill="#9AF6F4" opacity="1.000000" stroke="none" 
	d="
M629.692932,240.391098 
	C626.898254,241.190414 623.718384,241.898666 620.273315,242.352783 
	C623.108032,241.499115 626.207825,240.899567 629.692932,240.391098 
z"/>
<path fill="#9AF6F4" opacity="1.000000" stroke="none" 
	d="
M700.033264,266.578918 
	C698.415710,265.500244 696.739380,264.089905 695.036743,262.332520 
	C696.665161,263.406097 698.319824,264.826660 700.033264,266.578918 
z"/>
<path fill="#9AF6F4" opacity="1.000000" stroke="none" 
	d="
M740.003784,304.611145 
	C738.731018,303.849182 737.398438,302.757080 736.043152,301.316803 
	C737.328247,302.072754 738.636108,303.176880 740.003784,304.611145 
z"/>
<path fill="#9AF6F4" opacity="1.000000" stroke="none" 
	d="
M762.011230,325.599976 
	C760.740967,324.834656 759.410950,323.740662 758.068481,322.296509 
	C759.354492,323.054688 760.653015,324.162994 762.011230,325.599976 
z"/>
<path fill="#9AF6F4" opacity="1.000000" stroke="none" 
	d="
M668.825317,236.711182 
	C667.493103,236.881958 666.018982,236.745651 664.286133,236.352829 
	C665.579468,236.198929 667.131348,236.301514 668.825317,236.711182 
z"/>
<path fill="#9AF6F4" opacity="1.000000" stroke="none" 
	d="
M660.716858,236.269958 
	C659.867798,236.767197 658.660217,237.164246 657.235718,237.314697 
	C658.131897,236.768661 659.245178,236.469223 660.716858,236.269958 
z"/>
<path fill="#9AF6F4" opacity="1.000000" stroke="none" 
	d="
M722.017578,287.602570 
	C721.074341,287.167389 720.072876,286.407043 719.052002,285.297882 
	C720.008179,285.725189 720.983765,286.501282 722.017578,287.602570 
z"/>
<path fill="#9AF6F4" opacity="1.000000" stroke="none" 
	d="
M644.740479,238.345184 
	C643.874634,238.840637 642.668213,239.217651 641.237427,239.363510 
	C642.142029,238.830475 643.270935,238.528595 644.740479,238.345184 
z"/>
<path fill="#3C2E72" opacity="1.000000" stroke="none" 
	d="
M302.620911,140.017151 
	C302.792419,140.316193 302.515198,140.611160 302.107361,141.070160 
	C300.968689,141.155380 299.960632,141.076553 298.778534,140.719696 
	C299.793732,140.298828 300.982971,140.155960 302.620911,140.017151 
z"/>
<path fill="#9AF6F4" opacity="1.000000" stroke="none" 
	d="
M636.825928,239.714813 
	C636.151367,240.126328 635.280762,240.343597 634.207642,240.331070 
	C634.880066,239.907700 635.755066,239.714127 636.825928,239.714813 
z"/>
<path fill="#9AF6F4" opacity="1.000000" stroke="none" 
	d="
M651.851196,237.722488 
	C651.455811,238.100632 650.891235,238.292923 650.169495,238.267700 
	C650.568848,237.879013 651.125488,237.707825 651.851196,237.722488 
z"/>
<path fill="#3C2E72" opacity="1.000000" stroke="none" 
	d="
M297.087219,138.308334 
	C297.609833,138.595490 298.156708,139.183212 298.669281,140.087250 
	C298.127136,139.805328 297.619324,139.207108 297.087219,138.308334 
z"/>
<path fill="#3C2E72" opacity="1.000000" stroke="none" 
	d="
M292.933380,130.326538 
	C293.244476,130.495071 293.583832,130.960724 293.950928,131.733139 
	C293.639679,131.567810 293.300629,131.095734 292.933380,130.326538 
z"/>
<path fill="#3C2E72" opacity="1.000000" stroke="none" 
	d="
M295.680969,135.502396 
	C296.040283,135.692856 296.466492,136.224182 296.889465,137.133331 
	C296.506744,136.955185 296.127289,136.399216 295.680969,135.502396 
z"/>
<path fill="#9AF6F4" opacity="1.000000" stroke="none" 
	d="
M684.995117,252.680542 
	C684.806458,252.740997 684.524841,252.569382 684.162354,252.156311 
	C684.428650,251.979401 684.702271,252.157272 684.995117,252.680542 
z"/>
<path fill="#9AF6F4" opacity="1.000000" stroke="none" 
	d="
M723.993042,289.680237 
	C723.805054,289.741943 723.522949,289.571350 723.155029,289.161377 
	C723.345764,289.097290 723.622375,289.272614 723.993042,289.680237 
z"/>
<path fill="#9AF6F4" opacity="1.000000" stroke="none" 
	d="
M722.977783,288.699402 
	C722.794922,288.756989 722.513367,288.584656 722.143066,288.174133 
	C722.329224,288.113770 722.604187,288.291626 722.977783,288.699402 
z"/>
<path fill="#9AF6F4" opacity="1.000000" stroke="none" 
	d="
M707.092529,273.643860 
	C706.911011,273.712585 706.597473,273.561188 706.191406,273.156464 
	C706.386108,273.076660 706.673279,273.250214 707.092529,273.643860 
z"/>
<path fill="#9AF6F4" opacity="1.000000" stroke="none" 
	d="
M706.007202,272.663696 
	C705.815613,272.727112 705.533508,272.558594 705.174255,272.147766 
	C705.444458,271.965302 705.717712,272.140747 706.007202,272.663696 
z"/>
<path fill="#9AF6F4" opacity="1.000000" stroke="none" 
	d="
M705.002930,271.669250 
	C704.812256,271.731781 704.530334,271.562347 704.170288,271.150818 
	C704.439819,270.969574 704.713013,271.145782 705.002930,271.669250 
z"/>
<path fill="#9AF6F4" opacity="1.000000" stroke="none" 
	d="
M703.996704,270.674500 
	C703.807678,270.737030 703.524902,270.567902 703.158447,270.158417 
	C703.420532,269.983063 703.696594,270.157959 703.996704,270.674500 
z"/>
<path fill="#9AF6F4" opacity="1.000000" stroke="none" 
	d="
M702.987305,269.691467 
	C702.800720,269.749847 702.519836,269.575714 702.154968,269.161133 
	C702.344971,269.100067 702.619080,269.279541 702.987305,269.691467 
z"/>
<path fill="#9AF6F4" opacity="1.000000" stroke="none" 
	d="
M701.984131,268.695496 
	C701.798157,268.753143 701.517273,268.578583 701.151978,268.163513 
	C701.341492,268.103088 701.615356,268.283203 701.984131,268.695496 
z"/>
<path fill="#9AF6F4" opacity="1.000000" stroke="none" 
	d="
M700.982422,267.698547 
	C700.796448,267.755920 700.515747,267.580688 700.150391,267.165039 
	C700.339661,267.105042 700.613647,267.285492 700.982422,267.698547 
z"/>
<path fill="#9AF6F4" opacity="1.000000" stroke="none" 
	d="
M688.086914,255.647858 
	C687.905762,255.715469 687.594055,255.562607 687.190796,255.157074 
	C687.384949,255.078720 687.670654,255.253067 688.086914,255.647858 
z"/>
<path fill="#9AF6F4" opacity="1.000000" stroke="none" 
	d="
M687.004517,254.664062 
	C686.813599,254.727600 686.531128,254.559723 686.169800,254.150146 
	C686.436768,253.970413 686.710876,254.145126 687.004517,254.664062 
z"/>
<path fill="#9AF6F4" opacity="1.000000" stroke="none" 
	d="
M685.998657,253.675568 
	C685.809387,253.736710 685.527649,253.565857 685.165833,253.153351 
	C685.433044,252.975098 685.706543,253.152374 685.998657,253.675568 
z"/>
<path fill="#9AF6F4" opacity="1.000000" stroke="none" 
	d="
M725.997253,291.677856 
	C725.807861,291.738373 725.527039,291.566772 725.166992,291.153625 
	C725.434631,290.976227 725.707336,291.154114 725.997253,291.677856 
z"/>
<path fill="#9AF6F4" opacity="1.000000" stroke="none" 
	d="
M683.992554,251.684479 
	C683.804016,251.744415 683.522888,251.571884 683.160522,251.158112 
	C683.352783,251.095245 683.626404,251.273621 683.992554,251.684479 
z"/>
<path fill="#9AF6F4" opacity="1.000000" stroke="none" 
	d="
M682.989868,250.686798 
	C682.801941,250.746567 682.520813,250.573929 682.156555,250.160767 
	C682.347839,250.098267 682.622314,250.276321 682.989868,250.686798 
z"/>
<path fill="#EE79C6" opacity="1.000000" stroke="none" 
	d="
M837.077881,546.926086 
	C837.300659,547.030762 837.484741,547.173279 837.668762,547.315796 
	C837.482910,547.342407 837.297119,547.369080 837.038452,547.219421 
	C836.965637,547.043091 837.039246,546.963867 837.077881,546.926086 
z"/>
<path fill="#3C2E72" opacity="1.000000" stroke="none" 
	d="
M295.007996,134.274963 
	C295.243317,134.251297 295.489624,134.510056 295.752533,135.046326 
	C295.519073,135.068359 295.269012,134.812881 295.007996,134.274963 
z"/>
<path fill="#3C2E72" opacity="1.000000" stroke="none" 
	d="
M294.007446,132.340363 
	C294.241394,132.332184 294.516907,132.652496 294.854340,133.294495 
	C294.627167,133.300415 294.338104,132.984634 294.007446,132.340363 
z"/>
<path fill="#9AF6F4" opacity="1.000000" stroke="none" 
	d="
M681.985596,249.692291 
	C681.798706,249.751602 681.517761,249.577988 681.151367,249.164673 
	C681.341125,249.103088 681.616333,249.281219 681.985596,249.692291 
z"/>
<path fill="#9AF6F4" opacity="1.000000" stroke="none" 
	d="
M680.975464,248.702148 
	C680.792236,248.760147 680.510559,248.587830 680.139160,248.177521 
	C680.325317,248.116959 680.601135,248.294388 680.975464,248.702148 
z"/>
<path fill="#9AF6F4" opacity="1.000000" stroke="none" 
	d="
M679.962646,247.715714 
	C679.779480,247.766266 679.498718,247.582642 679.131287,247.155548 
	C679.318115,247.101898 679.591553,247.291718 679.962646,247.715714 
z"/>
<path fill="#9AF6F4" opacity="1.000000" stroke="none" 
	d="
M762.973022,326.702423 
	C762.790405,326.759491 762.511169,326.586487 762.143188,326.176880 
	C762.398193,326.009979 762.672180,326.187347 762.973022,326.702423 
z"/>
<path fill="#9AF6F4" opacity="1.000000" stroke="none" 
	d="
M741.976868,306.701904 
	C741.792419,306.759674 741.512146,306.585724 741.143250,306.173737 
	C741.330139,306.113892 741.605591,306.292053 741.976868,306.701904 
z"/>
<path fill="#9AF6F4" opacity="1.000000" stroke="none" 
	d="
M742.982178,307.696472 
	C742.796326,307.754486 742.515991,307.580231 742.150513,307.166382 
	C742.339417,307.105957 742.613647,307.285095 742.982178,307.696472 
z"/>
<path fill="#9AF6F4" opacity="1.000000" stroke="none" 
	d="
M743.988647,308.687744 
	C743.801697,308.747375 743.520325,308.575073 743.154419,308.162842 
	C743.344604,308.100586 743.619446,308.278198 743.988647,308.687744 
z"/>
<path fill="#9AF6F4" opacity="1.000000" stroke="none" 
	d="
M744.998413,309.673889 
	C744.809021,309.736359 744.526550,309.566956 744.161499,309.156860 
	C744.425598,308.979492 744.701050,309.154785 744.998413,309.673889 
z"/>
<path fill="#9AF6F4" opacity="1.000000" stroke="none" 
	d="
M746.002197,310.671143 
	C745.811584,310.733063 745.530090,310.562805 745.170532,310.150330 
	C745.440002,309.970062 745.712891,310.146973 746.002197,310.671143 
z"/>
<path fill="#9AF6F4" opacity="1.000000" stroke="none" 
	d="
M747.003357,311.669342 
	C746.812561,311.731323 746.531189,311.561249 746.172363,311.148987 
	C746.442078,310.968658 746.714722,311.145477 747.003357,311.669342 
z"/>
<path fill="#9AF6F4" opacity="1.000000" stroke="none" 
	d="
M748.004150,312.667664 
	C747.813293,312.729858 747.532043,312.560181 747.173828,312.148346 
	C747.443726,311.967773 747.716064,312.144318 748.004150,312.667664 
z"/>
<path fill="#9AF6F4" opacity="1.000000" stroke="none" 
	d="
M749.085632,313.646484 
	C748.904907,313.714355 748.593018,313.562347 748.188293,313.158295 
	C748.381775,313.079681 748.668152,313.253113 749.085632,313.646484 
z"/>
<path fill="#9AF6F4" opacity="1.000000" stroke="none" 
	d="
M731.104248,296.634735 
	C730.922913,296.704163 730.608276,296.555176 730.203125,296.151917 
	C730.398743,296.070526 730.684875,296.243439 731.104248,296.634735 
z"/>
<path fill="#9AF6F4" opacity="1.000000" stroke="none" 
	d="
M755.910767,319.761108 
	C755.669739,319.914795 755.402954,319.737976 755.101440,319.238129 
	C755.346436,319.070587 755.619263,319.242401 755.910767,319.761108 
z"/>
<path fill="#9AF6F4" opacity="1.000000" stroke="none" 
	d="
M757.948303,321.724335 
	C757.768433,321.778198 757.492065,321.600616 757.122070,321.188965 
	C757.302856,321.134247 757.577332,321.313568 757.948303,321.724335 
z"/>
<path fill="#9AF6F4" opacity="1.000000" stroke="none" 
	d="
M730.015320,295.649963 
	C729.822083,295.715057 729.540527,295.549408 729.185974,295.141113 
	C729.458923,294.955444 729.730225,295.129028 730.015320,295.649963 
z"/>
<path fill="#9AF6F4" opacity="1.000000" stroke="none" 
	d="
M724.996582,290.678589 
	C724.807190,290.739044 724.526306,290.567230 724.165649,290.153931 
	C724.432800,289.977051 724.705872,290.154999 724.996582,290.678589 
z"/>
<path fill="#9AF6F4" opacity="1.000000" stroke="none" 
	d="
M763.978638,327.697144 
	C763.794189,327.754272 763.515564,327.580231 763.151611,327.168030 
	C763.411743,326.997498 763.684448,327.176239 763.978638,327.697144 
z"/>
<path fill="#9AF6F4" opacity="1.000000" stroke="none" 
	d="
M764.982971,328.690552 
	C764.798279,328.748535 764.518921,328.576111 764.154907,328.165283 
	C764.415161,327.993896 764.687805,328.171631 764.982971,328.690552 
z"/>
<path fill="#9AF6F4" opacity="1.000000" stroke="none" 
	d="
M765.994263,329.674927 
	C765.806274,329.736816 765.525818,329.567505 765.161377,329.159668 
	C765.423645,328.982727 765.698364,329.156921 765.994263,329.674927 
z"/>
<path fill="#9AF6F4" opacity="1.000000" stroke="none" 
	d="
M729.011536,294.654053 
	C728.819153,294.718964 728.537231,294.552948 728.179565,294.144958 
	C728.449524,293.961548 728.722229,294.134918 729.011536,294.654053 
z"/>
<path fill="#CF6ABD" opacity="1.000000" stroke="none" 
	d="
M495.983948,191.975037 
	C496.086609,191.716278 496.252777,191.524261 496.418976,191.332245 
	C496.460968,191.554260 496.502960,191.776291 496.361755,192.084808 
	C496.178558,192.171295 496.047455,192.041794 495.983948,191.975037 
z"/>
<path fill="#9AF6F4" opacity="1.000000" stroke="none" 
	d="
M728.005981,293.662537 
	C727.814880,293.726227 727.533203,293.558258 727.172852,293.148987 
	C727.441772,292.966248 727.715515,293.140656 728.005981,293.662537 
z"/>
<path fill="#9AF6F4" opacity="1.000000" stroke="none" 
	d="
M726.998840,292.672913 
	C726.809753,292.734222 726.528198,292.564392 726.167480,292.153015 
	C726.434509,291.974976 726.707214,292.151733 726.998840,292.672913 
z"/>
<path fill="#9AF6F4" opacity="1.000000" stroke="none" 
	d="
M740.967529,305.711823 
	C740.784912,305.768555 740.505981,305.593048 740.135376,305.181458 
	C740.319519,305.123444 740.595337,305.301514 740.967529,305.711823 
z"/>
<path fill="#F992CB" opacity="1.000000" stroke="none" 
	d="
M473.048462,510.016541 
	C468.072540,511.002014 463.079559,512.859985 458.124878,512.763062 
	C451.157562,512.626587 444.218628,511.039215 436.695251,509.738037 
	C429.761627,505.489777 423.400330,501.575806 417.039032,497.661835 
	C414.695374,494.103912 412.089783,490.685944 410.090881,486.943878 
	C408.491547,483.949829 407.629822,480.561798 406.236053,476.667664 
	C405.988037,467.985596 405.944702,459.984497 405.901367,451.983368 
	C409.610962,444.895996 413.320496,437.808655 417.457397,430.324402 
	C424.214722,425.636322 430.544708,421.345154 436.874664,417.054016 
	C441.876343,416.067383 446.885742,414.251190 451.877747,414.297913 
	C458.561951,414.360504 465.232666,415.865997 472.631226,416.959778 
	C479.849304,421.169434 486.345337,425.171234 492.841370,429.172974 
	C493.799774,430.836853 494.809052,432.473755 495.707275,434.169495 
	C498.711792,439.841644 501.676636,445.534851 504.752747,451.974670 
	C506.926636,462.904419 504.744171,472.838501 503.147797,482.805725 
	C499.787231,487.566406 496.426697,492.327118 492.662659,497.485077 
	C485.855621,501.927063 479.452026,505.971802 473.048462,510.016541 
M422.083008,462.984558 
	C419.175598,463.114532 416.268188,463.244507 412.449463,463.415192 
	C416.382019,471.224152 421.880127,476.255615 428.217438,481.423462 
	C433.423004,487.558350 439.129059,492.927856 448.327820,494.598999 
	C461.528442,496.889496 472.964783,493.890381 480.862183,482.496765 
	C487.758789,472.547058 489.454681,461.518860 484.573242,450.147675 
	C479.047943,437.276642 464.223572,429.792877 449.991150,432.269928 
	C434.240387,435.011230 424.173096,446.400055 422.083008,462.984558 
z"/>
<path fill="#6E5292" opacity="1.000000" stroke="none" 
	d="
M447.670898,638.090820 
	C453.532074,651.928162 450.810913,658.736511 437.191406,664.954407 
	C416.718414,674.301270 396.228333,683.610596 375.390503,692.995239 
	C373.260803,691.062378 371.486084,689.070251 369.374329,687.006775 
	C368.677155,685.411865 368.317017,683.888245 367.926880,681.960876 
	C387.487244,670.734680 407.062195,659.884155 426.676514,649.105347 
	C433.506500,645.351990 440.433807,641.775818 447.670898,638.090820 
z"/>
<path fill="#3C2E72" opacity="1.000000" stroke="none" 
	d="
M503.459106,482.697815 
	C504.744171,472.838501 506.926636,462.904419 504.919373,452.281952 
	C512.716858,451.400848 518.875427,455.033295 524.886108,460.103790 
	C525.134155,461.489166 525.227844,462.219818 525.321533,462.950500 
	C525.278564,463.713074 525.235596,464.475647 525.264893,465.614685 
	C525.474792,469.077667 524.225159,471.117767 521.367310,472.622559 
	C515.405212,475.761841 509.625244,479.246887 503.459106,482.697815 
z"/>
<path fill="#705593" opacity="1.000000" stroke="none" 
	d="
M473.191345,510.320312 
	C479.452026,505.971802 485.855621,501.927063 492.605804,497.818237 
	C494.101837,500.056763 496.049957,502.294556 496.243134,504.674774 
	C496.722504,510.582062 496.400696,516.554382 496.400696,522.847351 
	C491.875763,522.847351 487.961823,522.847351 483.604034,522.730957 
	C479.884888,518.617798 476.609558,514.620911 473.191345,510.320312 
z"/>
<path fill="#FBAA6A" opacity="1.000000" stroke="none" 
	d="
M534.835388,329.396545 
	C541.093323,321.633423 546.154785,313.463806 550.059631,304.249176 
	C556.990356,312.062866 563.484314,319.827545 569.749207,327.772766 
	C584.147644,346.032990 602.785156,353.100800 625.643860,349.305237 
	C636.603271,349.088806 647.560913,348.538300 658.150391,352.490570 
	C680.125671,360.692261 695.544800,382.625641 695.779846,406.293762 
	C695.834351,411.779724 695.237915,417.368774 696.102844,422.722687 
	C696.954895,427.997223 698.587097,433.421112 701.174133,438.055328 
	C703.355591,441.962860 702.926392,443.427124 699.102234,445.020050 
	C695.429626,446.549896 691.942993,448.526245 688.112122,450.527039 
	C678.273865,443.603302 673.534485,433.624420 670.999207,422.285828 
	C669.770264,416.789734 668.692078,411.198212 666.779236,405.928070 
	C660.570251,388.821594 645.384277,378.160675 627.089722,377.846497 
	C622.636047,377.769958 618.170898,378.355164 612.869751,378.785675 
	C600.781616,379.689148 589.840515,378.402252 579.519714,373.642883 
	C575.226624,371.663116 571.128357,369.261017 566.941528,367.050964 
	C566.941528,367.050964 566.977844,366.994812 566.885010,366.681213 
	C566.340637,366.242188 565.888977,366.116760 565.437378,365.991302 
	C555.544861,354.667480 545.642944,343.351807 535.787231,331.995972 
	C535.291626,331.424896 535.195923,330.506775 534.835388,329.396545 
z"/>
<path fill="#5B468B" opacity="1.000000" stroke="none" 
	d="
M502.445496,345.785950 
	C502.045929,345.376343 501.950867,344.830933 502.107880,344.744812 
	C507.810577,341.615906 505.996399,336.199127 505.943115,331.511749 
	C505.764130,315.765289 505.200928,300.022766 505.071655,284.276398 
	C505.016113,277.508087 505.983704,270.731445 505.928375,263.963135 
	C505.809204,249.379913 505.545685,234.788925 504.827332,220.226486 
	C504.668610,217.008789 502.376465,213.896347 501.023315,210.378784 
	C502.095398,206.439453 503.210846,202.856781 504.735535,197.959717 
	C506.203674,200.652710 507.020996,202.186874 507.870850,203.702805 
	C509.249329,206.161621 510.160004,209.136536 512.130920,210.962234 
	C518.266846,216.645950 518.375427,224.048172 519.033081,231.463654 
	C520.212952,244.767624 521.307007,258.090240 522.990295,271.334717 
	C524.148743,280.449493 526.900513,289.389038 527.682007,298.514679 
	C528.197693,304.535828 527.460632,310.636963 529.915161,316.412262 
	C530.040100,316.706238 529.895142,317.143402 530.061646,317.387024 
	C532.825134,321.431427 534.219116,325.684967 532.316895,330.895142 
	C532.439941,331.287689 532.387634,331.267151 532.063843,331.292633 
	C531.578247,331.657654 531.416504,331.997192 531.254761,332.336731 
	C531.254761,332.336731 531.192444,332.216278 530.964600,332.264893 
	C530.557373,332.641785 530.377991,332.970001 530.198547,333.298218 
	C530.198547,333.298218 530.129272,333.165375 529.904724,333.250641 
	C529.492676,333.691895 529.305115,334.047852 529.117554,334.403809 
	C521.674133,341.216583 513.416809,346.165192 502.445496,345.785950 
z"/>
<path fill="#705593" opacity="1.000000" stroke="none" 
	d="
M566.925293,367.397705 
	C571.128357,369.261017 575.226624,371.663116 579.519714,373.642883 
	C589.840515,378.402252 600.781616,379.689148 612.489624,378.965820 
	C607.083984,386.080353 601.217102,393.164246 595.207214,400.538696 
	C593.056274,398.729279 590.922607,396.734467 589.062561,394.510803 
	C581.631775,385.627319 574.286133,376.672699 566.925293,367.397705 
z"/>
<path fill="#705593" opacity="1.000000" stroke="none" 
	d="
M405.523987,451.916779 
	C405.944702,459.984497 405.988037,467.985596 405.966919,476.395142 
	C398.546631,478.502625 392.669525,475.000702 386.942169,471.250854 
	C384.228058,469.473907 383.100067,460.296387 385.763580,458.579468 
	C391.587830,454.825165 397.126160,449.526154 405.523987,451.916779 
z"/>
<path fill="#47357C" opacity="1.000000" stroke="none" 
	d="
M416.706360,497.843201 
	C423.400330,501.575806 429.761627,505.489777 436.332947,509.718994 
	C433.458862,513.930969 431.035400,518.832275 427.093475,521.424622 
	C423.581177,523.734497 418.388794,523.489746 412.602661,524.637146 
	C414.512787,515.049561 409.503357,505.939178 416.706360,497.843201 
z"/>
<path fill="#47357C" opacity="1.000000" stroke="none" 
	d="
M436.737000,416.751038 
	C430.544708,421.345154 424.214722,425.636322 417.559448,429.984619 
	C410.556366,422.302124 413.615570,413.066162 412.882568,404.559814 
	C425.082336,400.626129 430.880463,408.460785 436.737000,416.751038 
z"/>
<path fill="#705593" opacity="1.000000" stroke="none" 
	d="
M493.016083,428.825562 
	C486.345337,425.171234 479.849304,421.169434 472.997040,417.034973 
	C475.728790,413.067535 478.156403,408.173279 482.101776,405.714172 
	C485.620544,403.520966 490.817169,404.019775 496.137604,403.196930 
	C495.611816,412.353333 498.417603,420.777924 493.016083,428.825562 
z"/>
<path fill="#DBF4F6" opacity="1.000000" stroke="none" 
	d="
M525.513977,462.738403 
	C525.227844,462.219818 525.134155,461.489166 525.077881,460.390320 
	C525.312378,460.856873 525.509399,461.691559 525.513977,462.738403 
z"/>
<path fill="#564286" opacity="1.000000" stroke="none" 
	d="
M531.519775,332.252502 
	C531.416504,331.997192 531.578247,331.657654 532.038330,331.280823 
	C532.152710,331.551788 531.968750,331.860016 531.519775,332.252502 
z"/>
<path fill="#564286" opacity="1.000000" stroke="none" 
	d="
M530.463135,333.214722 
	C530.377991,332.970001 530.557373,332.641785 531.031250,332.277405 
	C531.126343,332.537872 530.927002,332.834534 530.463135,333.214722 
z"/>
<path fill="#564286" opacity="1.000000" stroke="none" 
	d="
M529.386169,334.268982 
	C529.305115,334.047852 529.492676,333.691895 529.979370,333.244812 
	C530.070679,333.480499 529.862732,333.807312 529.386169,334.268982 
z"/>
<path fill="#705593" opacity="1.000000" stroke="none" 
	d="
M565.642212,366.256226 
	C565.888977,366.116760 566.340637,366.242188 566.881104,366.714294 
	C566.595642,366.881042 566.221375,366.701111 565.642212,366.256226 
z"/>
<path fill="#78E7E9" opacity="1.000000" stroke="none" 
	d="
M625.832092,348.975586 
	C602.785156,353.100800 584.147644,346.032990 569.749207,327.772766 
	C563.484314,319.827545 556.990356,312.062866 550.331055,304.005096 
	C554.758362,289.813232 556.839783,275.528259 555.131104,260.356201 
	C555.680359,258.732300 556.162415,257.546722 556.762329,256.071136 
	C563.563477,257.387207 567.733948,262.451050 572.726318,266.872833 
	C580.293884,277.859924 587.781799,288.559723 594.760681,299.581818 
	C602.171326,311.285828 616.208191,318.054443 628.366638,314.975708 
	C635.901001,314.975006 643.044861,314.981323 650.666382,315.056030 
	C642.769348,326.298218 634.394836,337.472076 625.832092,348.975586 
z"/>
<path fill="#4FBDC8" opacity="1.000000" stroke="none" 
	d="
M698.061401,298.325867 
	C698.531433,298.200470 699.099182,298.380493 699.834229,298.820465 
	C699.387390,298.930695 698.773254,298.781006 698.061401,298.325867 
z"/>
<path fill="#FEFEFE" opacity="1.000000" stroke="none" 
	d="
M264.480103,722.732666 
	C256.850464,707.932251 264.602600,695.494934 281.163666,696.060059 
	C283.063873,704.585571 283.570465,704.945618 291.900574,707.137573 
	C293.193939,707.477905 294.806793,709.613342 294.897583,711.008118 
	C295.360504,718.119202 290.628937,725.260803 284.126617,728.005127 
	C277.594971,730.761841 270.879913,729.003113 264.480103,722.732666 
z"/>
<path fill="#47357C" opacity="1.000000" stroke="none" 
	d="
M447.586884,494.089050 
	C439.129059,492.927856 433.423004,487.558350 428.484863,481.185852 
	C432.867126,481.952393 436.985474,482.251801 440.348297,479.168640 
	C443.094696,476.650574 445.483032,473.742004 448.393951,470.998962 
	C458.895691,464.443542 468.238861,457.183777 472.407684,445.020386 
	C474.832489,447.472992 478.046082,449.604340 478.726196,452.360809 
	C479.751587,456.516479 479.347473,461.139587 478.952484,465.509918 
	C477.665955,479.744781 466.920502,495.007782 447.586884,494.089050 
z"/>
<path fill="#3C2E72" opacity="1.000000" stroke="none" 
	d="
M447.957336,494.344025 
	C466.920502,495.007782 477.665955,479.744781 478.952484,465.509918 
	C479.347473,461.139587 479.751587,456.516479 478.726196,452.360809 
	C478.046082,449.604340 474.832489,447.472992 472.191162,444.752563 
	C468.052399,442.954987 464.594574,440.677124 460.877716,440.116486 
	C445.585754,437.809753 434.235291,449.563812 427.546753,462.885864 
	C425.744934,462.911682 424.353973,462.878845 422.963043,462.846008 
	C424.173096,446.400055 434.240387,435.011230 449.991150,432.269928 
	C464.223572,429.792877 479.047943,437.276642 484.573242,450.147675 
	C489.454681,461.518860 487.758789,472.547058 480.862183,482.496765 
	C472.964783,493.890381 461.528442,496.889496 447.957336,494.344025 
z"/>
<path fill="#FEFEFE" opacity="1.000000" stroke="none" 
	d="
M422.523010,462.915283 
	C424.353973,462.878845 425.744934,462.911682 428.008484,462.985291 
	C434.928192,463.026062 440.975220,463.026062 447.325439,463.026062 
	C447.599243,466.127106 447.814667,468.566833 448.030090,471.006561 
	C445.483032,473.742004 443.094696,476.650574 440.348297,479.168640 
	C436.985474,482.251801 432.867126,481.952393 428.358887,480.863159 
	C421.880127,476.255615 416.382019,471.224152 412.449463,463.415192 
	C416.268188,463.244507 419.175598,463.114532 422.523010,462.915283 
z"/>
<path fill="#6E5292" opacity="1.000000" stroke="none" 
	d="
M448.393951,470.998962 
	C447.814667,468.566833 447.599243,466.127106 447.325439,463.026062 
	C440.975220,463.026062 434.928192,463.026062 428.419403,462.926636 
	C434.235291,449.563812 445.585754,437.809753 460.877716,440.116486 
	C464.594574,440.677124 468.052399,442.954987 471.845886,444.711121 
	C468.238861,457.183777 458.895691,464.443542 448.393951,470.998962 
z"/>
</svg>