<?xml version="1.0" encoding="UTF-8"?>
<!DOCTYPE svg PUBLIC "-//W3C//DTD SVG 1.1//EN" "http://www.w3.org/Graphics/SVG/1.1/DTD/svg11.dtd">
<svg xmlns="http://www.w3.org/2000/svg" version="1.1" width="1024px" height="1024px" style="shape-rendering:geometricPrecision; text-rendering:geometricPrecision; image-rendering:optimizeQuality; fill-rule:evenodd; clip-rule:evenodd" xmlns:xlink="http://www.w3.org/1999/xlink">
<g><path style="opacity:1" fill="#fefdfe" d="M -0.5,-0.5 C 340.833,-0.5 682.167,-0.5 1023.5,-0.5C 1023.5,340.833 1023.5,682.167 1023.5,1023.5C 682.167,1023.5 340.833,1023.5 -0.5,1023.5C -0.5,682.167 -0.5,340.833 -0.5,-0.5 Z"/></g>
<g><path style="opacity:1" fill="#402b6c" d="M 291.5,110.5 C 291.608,112.514 290.942,114.18 289.5,115.5C 287.726,116.881 286.226,116.548 285,114.5C 281.894,109.521 280.227,104.188 280,98.5C 284.711,101.71 288.544,105.71 291.5,110.5 Z"/></g>
<g><path style="opacity:1" fill="#b7b5d2" d="M 291.5,110.5 C 292.451,111.919 292.784,113.585 292.5,115.5C 293.791,115.263 294.791,115.596 295.5,116.5C 293.139,118.194 291.139,120.194 289.5,122.5C 289.5,120.167 289.5,117.833 289.5,115.5C 290.942,114.18 291.608,112.514 291.5,110.5 Z"/></g>
<g><path style="opacity:1" fill="#423272" d="M 295.5,116.5 C 296.239,116.369 296.906,116.536 297.5,117C 300.631,121.133 304.131,124.966 308,128.5C 308.495,130.473 308.662,132.473 308.5,134.5C 307.5,134.833 306.833,135.5 306.5,136.5C 304.391,137.391 302.391,138.558 300.5,140C 299.5,140.667 298.5,140.667 297.5,140C 294.06,134.432 291.393,128.599 289.5,122.5C 291.139,120.194 293.139,118.194 295.5,116.5 Z"/></g>
<g><path style="opacity:1" fill="#b3b6d4" d="M 308.5,134.5 C 309.262,136.262 310.596,137.262 312.5,137.5C 310.833,139.5 309.167,141.5 307.5,143.5C 306.5,144.167 305.5,144.833 304.5,145.5C 305.349,142.964 306.349,140.464 307.5,138C 306.944,137.617 306.611,137.117 306.5,136.5C 306.833,135.5 307.5,134.833 308.5,134.5 Z"/></g>
<g><path style="opacity:1" fill="#3a2a6b" d="M 312.5,137.5 C 314.903,137.393 316.736,138.393 318,140.5C 321.796,144.449 324.963,148.783 327.5,153.5C 328.163,158.17 326.163,160.836 321.5,161.5C 317.185,155.19 312.518,149.19 307.5,143.5C 309.167,141.5 310.833,139.5 312.5,137.5 Z"/></g>
<g><path style="opacity:1" fill="#4f3c82" d="M 307.5,143.5 C 312.518,149.19 317.185,155.19 321.5,161.5C 321.5,161.833 321.5,162.167 321.5,162.5C 318.891,163.443 316.891,165.11 315.5,167.5C 312.901,167.451 310.734,166.451 309,164.5C 306.28,159.728 304.113,154.728 302.5,149.5C 302.752,147.927 303.418,146.594 304.5,145.5C 305.5,144.833 306.5,144.167 307.5,143.5 Z"/></g>
<g><path style="opacity:1" fill="#abb7cb" d="M 327.5,153.5 C 328.044,158.378 330.71,161.378 335.5,162.5C 334.448,162.351 333.448,162.517 332.5,163C 330.63,165.04 328.63,166.873 326.5,168.5C 325.753,165.638 324.086,163.638 321.5,162.5C 321.5,162.167 321.5,161.833 321.5,161.5C 326.163,160.836 328.163,158.17 327.5,153.5 Z"/></g>
<g><path style="opacity:1" fill="#d8dae5" d="M 321.5,162.5 C 324.086,163.638 325.753,165.638 326.5,168.5C 326.167,169.167 325.833,169.833 325.5,170.5C 320.943,172.383 318.277,175.717 317.5,180.5C 316.717,176.307 316.051,171.973 315.5,167.5C 316.891,165.11 318.891,163.443 321.5,162.5 Z"/></g>
<g><path style="opacity:1" fill="#36256d" d="M 335.5,162.5 C 340.111,166.375 344.278,170.708 348,175.5C 348.791,176.745 349.291,178.078 349.5,179.5C 348.498,183.736 345.831,186.736 341.5,188.5C 340.325,188.719 339.325,188.386 338.5,187.5C 335.833,182.162 332.666,177.162 329,172.5C 328.184,171.177 327.017,170.511 325.5,170.5C 325.833,169.833 326.167,169.167 326.5,168.5C 328.63,166.873 330.63,165.04 332.5,163C 333.448,162.517 334.448,162.351 335.5,162.5 Z"/></g>
<g><path style="opacity:1" fill="#554184" d="M 544.5,216.5 C 548.001,228.832 551.001,241.166 553.5,253.5C 554.675,270.497 553.009,287.164 548.5,303.5C 544.453,312.578 539.12,320.912 532.5,328.5C 530.192,330.471 527.858,332.471 525.5,334.5C 522.847,332.182 523.513,330.682 527.5,330C 527.167,329.667 526.833,329.333 526.5,329C 528.14,327.605 529.64,326.105 531,324.5C 532.666,325.34 532.833,324.84 531.5,323C 532.167,322.667 532.833,322.333 533.5,322C 532.409,319.936 532.242,317.769 533,315.5C 534.018,316.706 534.518,316.373 534.5,314.5C 534.215,312.431 533.048,311.098 531,310.5C 530.552,312.409 531.385,313.576 533.5,314C 531.939,314.318 530.772,315.151 530,316.5C 529.296,314.722 528.796,312.888 528.5,311C 529.058,305.938 529.725,300.938 530.5,296C 529.693,290.917 529.193,285.75 529,280.5C 528.667,285.5 528.333,290.5 528,295.5C 527.827,275.26 527.327,255.094 526.5,235C 526.957,234.586 527.291,234.086 527.5,233.5C 525.247,229.91 524.914,226.076 526.5,222C 525.877,218.519 525.377,215.019 525,211.5C 523.707,213.286 523.207,214.953 523.5,216.5C 522.355,214.365 522.355,212.199 523.5,210C 522.836,206.839 521.503,204.006 519.5,201.5C 519.833,200.833 520.167,200.167 520.5,199.5C 519.294,197.851 517.961,196.351 516.5,195C 518.901,194.195 518.734,193.362 516,192.5C 514.982,193.706 514.482,193.373 514.5,191.5C 514.556,190.263 515.056,189.263 516,188.5C 516.718,189.451 517.551,189.617 518.5,189C 515.715,185.544 512.048,184.044 507.5,184.5C 506.735,188.035 505.401,191.369 503.5,194.5C 502.264,195.246 500.93,195.579 499.5,195.5C 505.512,179.808 512.346,164.475 520,149.5C 530.834,170.833 539.001,193.166 544.5,216.5 Z"/></g>
<g><path style="opacity:1" fill="#594389" d="M 525.5,334.5 C 520.602,338.784 514.935,341.784 508.5,343.5C 504.629,343.815 500.962,343.482 497.5,342.5C 499.717,341.631 502.05,341.298 504.5,341.5C 503.707,300.514 503.207,259.514 503,218.5C 502.104,215.86 500.604,213.693 498.5,212C 498.833,211.667 499.167,211.333 499.5,211C 497.353,208.496 497.353,206.162 499.5,204C 498.864,201.606 498.864,199.106 499.5,196.5C 499.5,196.167 499.5,195.833 499.5,195.5C 500.93,195.579 502.264,195.246 503.5,194.5C 505.401,191.369 506.735,188.035 507.5,184.5C 512.048,184.044 515.715,185.544 518.5,189C 517.551,189.617 516.718,189.451 516,188.5C 515.056,189.263 514.556,190.263 514.5,191.5C 514.482,193.373 514.982,193.706 516,192.5C 518.734,193.362 518.901,194.195 516.5,195C 517.961,196.351 519.294,197.851 520.5,199.5C 520.167,200.167 519.833,200.833 519.5,201.5C 521.503,204.006 522.836,206.839 523.5,210C 522.355,212.199 522.355,214.365 523.5,216.5C 523.207,214.953 523.707,213.286 525,211.5C 525.377,215.019 525.877,218.519 526.5,222C 524.914,226.076 525.247,229.91 527.5,233.5C 527.291,234.086 526.957,234.586 526.5,235C 527.327,255.094 527.827,275.26 528,295.5C 528.333,290.5 528.667,285.5 529,280.5C 529.193,285.75 529.693,290.917 530.5,296C 529.725,300.938 529.058,305.938 528.5,311C 528.796,312.888 529.296,314.722 530,316.5C 530.772,315.151 531.939,314.318 533.5,314C 531.385,313.576 530.552,312.409 531,310.5C 533.048,311.098 534.215,312.431 534.5,314.5C 534.518,316.373 534.018,316.706 533,315.5C 532.242,317.769 532.409,319.936 533.5,322C 532.833,322.333 532.167,322.667 531.5,323C 532.833,324.84 532.666,325.34 531,324.5C 529.64,326.105 528.14,327.605 526.5,329C 526.833,329.333 527.167,329.667 527.5,330C 523.513,330.682 522.847,332.182 525.5,334.5 Z"/></g>
<g><path style="opacity:1" fill="#b4b8cf" d="M 349.5,179.5 C 350.803,183.798 353.47,186.798 357.5,188.5C 356.448,188.351 355.448,188.517 354.5,189C 351.043,191.387 348.043,194.22 345.5,197.5C 345.167,197.5 344.833,197.5 344.5,197.5C 343.431,195.031 342.098,192.698 340.5,190.5C 340.833,189.833 341.167,189.167 341.5,188.5C 345.831,186.736 348.498,183.736 349.5,179.5 Z"/></g>
<g><path style="opacity:1" fill="#584588" d="M 325.5,170.5 C 327.017,170.511 328.184,171.177 329,172.5C 332.666,177.162 335.833,182.162 338.5,187.5C 339.325,188.386 340.325,188.719 341.5,188.5C 341.167,189.167 340.833,189.833 340.5,190.5C 336.334,193.417 332.001,196.084 327.5,198.5C 326.115,197.426 324.949,196.093 324,194.5C 322.093,189.687 319.926,185.02 317.5,180.5C 318.277,175.717 320.943,172.383 325.5,170.5 Z"/></g>
<g><path style="opacity:1" fill="#dce1ea" d="M 340.5,190.5 C 342.098,192.698 343.431,195.031 344.5,197.5C 340.167,201.167 336.167,205.167 332.5,209.5C 331.088,205.679 329.422,202.013 327.5,198.5C 332.001,196.084 336.334,193.417 340.5,190.5 Z"/></g>
<g><path style="opacity:1" fill="#3a2a6e" d="M 357.5,188.5 C 361.436,192.938 365.602,197.271 370,201.5C 371.202,203.677 371.702,206.011 371.5,208.5C 367.792,212.21 363.792,215.543 359.5,218.5C 355.575,210.976 350.908,203.976 345.5,197.5C 348.043,194.22 351.043,191.387 354.5,189C 355.448,188.517 356.448,188.351 357.5,188.5 Z"/></g>
<g><path style="opacity:1" fill="#5f498a" d="M 344.5,197.5 C 344.833,197.5 345.167,197.5 345.5,197.5C 350.908,203.976 355.575,210.976 359.5,218.5C 359.5,218.833 359.5,219.167 359.5,219.5C 354.833,223.167 350.167,226.833 345.5,230.5C 343.629,230.141 342.129,229.141 341,227.5C 337.485,221.819 334.652,215.819 332.5,209.5C 336.167,205.167 340.167,201.167 344.5,197.5 Z"/></g>
<g><path style="opacity:1" fill="#cf67bc" d="M 479.5,220.5 C 476.353,221.046 473.353,222.046 470.5,223.5C 468.326,223.75 466.659,224.75 465.5,226.5C 461.5,228.5 458.5,231.5 456.5,235.5C 450.244,241.664 445.744,248.998 443,257.5C 442.184,258.823 441.017,259.489 439.5,259.5C 437.228,252.952 434.394,246.619 431,240.5C 423.833,228.833 416.667,217.167 409.5,205.5C 410.167,205.167 410.833,204.833 411.5,204.5C 426.391,207.931 441.225,211.598 456,215.5C 468.741,207.545 481.241,199.211 493.5,190.5C 490.034,200.781 485.367,210.781 479.5,220.5 Z"/></g>
<g><path style="opacity:1" fill="#a9bcce" d="M 371.5,208.5 C 371.511,210.017 372.177,211.184 373.5,212C 375.611,212.845 377.611,213.678 379.5,214.5C 375.202,217.463 371.202,220.797 367.5,224.5C 366.167,225.5 364.833,226.5 363.5,227.5C 363.47,224.148 362.137,221.482 359.5,219.5C 359.5,219.167 359.5,218.833 359.5,218.5C 363.792,215.543 367.792,212.21 371.5,208.5 Z"/></g>
<g><path style="opacity:1" fill="#99f6f4" d="M 544.5,216.5 C 562.485,217.883 578.818,223.716 593.5,234C 596.039,236.37 598.372,238.87 600.5,241.5C 590.609,249.272 580.943,257.272 571.5,265.5C 566.47,259.989 560.47,255.989 553.5,253.5C 551.001,241.166 548.001,228.832 544.5,216.5 Z"/></g>
<g><path style="opacity:1" fill="#a4bada" d="M 470.5,223.5 C 469.514,225.408 467.848,226.408 465.5,226.5C 466.659,224.75 468.326,223.75 470.5,223.5 Z"/></g>
<g><path style="opacity:1" fill="#d8dde7" d="M 359.5,219.5 C 362.137,221.482 363.47,224.148 363.5,227.5C 359.504,231.599 355.337,235.599 351,239.5C 350.506,241.134 350.34,242.801 350.5,244.5C 349.657,239.645 347.991,234.979 345.5,230.5C 350.167,226.833 354.833,223.167 359.5,219.5 Z"/></g>
<g><path style="opacity:1" fill="#60498c" d="M 367.5,224.5 C 367.461,225.583 367.127,226.583 366.5,227.5C 370.082,233.914 374.249,239.914 379,245.5C 379.483,246.448 379.649,247.448 379.5,248.5C 373.642,253.602 367.976,258.935 362.5,264.5C 360.61,264.703 359.11,264.037 358,262.5C 355.211,256.593 352.711,250.593 350.5,244.5C 350.34,242.801 350.506,241.134 351,239.5C 355.337,235.599 359.504,231.599 363.5,227.5C 364.833,226.5 366.167,225.5 367.5,224.5 Z"/></g>
<g><path style="opacity:1" fill="#9fb6d5" d="M 465.5,226.5 C 463.167,229.167 460.833,231.833 458.5,234.5C 457.833,234.833 457.167,235.167 456.5,235.5C 458.5,231.5 461.5,228.5 465.5,226.5 Z"/></g>
<g><path style="opacity:1" fill="#7acfdc" d="M 458.5,234.5 C 459.058,235.79 460.058,236.623 461.5,237C 458.761,237.798 456.761,239.465 455.5,242C 455.833,242.333 456.167,242.667 456.5,243C 452.709,246.092 450.042,249.926 448.5,254.5C 447.178,254.33 446.011,254.663 445,255.5C 444.667,258.167 444.333,260.833 444,263.5C 442.08,265.474 440.247,267.474 438.5,269.5C 438.167,269.5 437.833,269.5 437.5,269.5C 440.352,266.575 441.018,263.242 439.5,259.5C 441.017,259.489 442.184,258.823 443,257.5C 445.744,248.998 450.244,241.664 456.5,235.5C 457.167,235.167 457.833,234.833 458.5,234.5 Z"/></g>
<g><path style="opacity:1" fill="#78f5f1" d="M 691.5,290.5 C 679.494,281.15 667.827,271.317 656.5,261C 649.418,260.661 642.418,259.827 635.5,258.5C 634.019,256.753 632.019,255.586 629.5,255C 630.328,254.085 631.328,253.419 632.5,253C 629.901,252.231 627.401,252.398 625,253.5C 624.626,252.584 624.126,251.75 623.5,251C 626.756,249.484 628.09,247.151 627.5,244C 629.061,243.682 630.228,242.849 631,241.5C 631.333,241.833 631.667,242.167 632,242.5C 632.374,241.584 632.874,240.75 633.5,240C 641.099,238.414 648.766,237.248 656.5,236.5C 658.167,236.833 659.833,237.167 661.5,237.5C 665.409,240.155 669.076,242.988 672.5,246C 672.167,246.333 671.833,246.667 671.5,247C 672.9,248.438 674.567,249.271 676.5,249.5C 676.281,250.675 676.614,251.675 677.5,252.5C 679.116,253.115 680.449,254.115 681.5,255.5C 682.696,255.154 682.696,254.654 681.5,254C 682.635,253.251 683.635,253.417 684.5,254.5C 686.167,256.667 687.833,258.833 689.5,261C 692.281,262.447 694.781,264.28 697,266.5C 697.667,267.167 697.667,267.833 697,268.5C 696.346,267.304 695.846,267.304 695.5,268.5C 698.017,270.849 700.35,273.349 702.5,276C 702.167,276.333 701.833,276.667 701.5,277C 703.059,277.98 704.726,278.813 706.5,279.5C 705.271,280.281 703.938,280.781 702.5,281C 703.126,281.75 703.626,282.584 704,283.5C 705.667,283.167 707.333,282.833 709,282.5C 710.119,283.552 710.619,284.719 710.5,286C 712.246,286.471 713.913,287.138 715.5,288C 713.671,288.273 712.171,289.107 711,290.5C 710.396,288.314 709.23,288.148 707.5,290C 706.624,291.585 705.291,292.585 703.5,293C 703.833,293.333 704.167,293.667 704.5,294C 703.498,295.672 702.332,296.838 701,297.5C 699.137,294.226 695.971,291.893 691.5,290.5 Z"/></g>
<g><path style="opacity:1" fill="#3b2b70" d="M 379.5,214.5 C 383.548,218.234 387.381,222.234 391,226.5C 393.287,229.072 394.453,232.072 394.5,235.5C 389.859,239.805 385.193,244.139 380.5,248.5C 380.167,248.5 379.833,248.5 379.5,248.5C 379.649,247.448 379.483,246.448 379,245.5C 374.249,239.914 370.082,233.914 366.5,227.5C 367.127,226.583 367.461,225.583 367.5,224.5C 371.202,220.797 375.202,217.463 379.5,214.5 Z"/></g>
<g><path style="opacity:1" fill="#6e5291" d="M 499.5,196.5 C 498.864,199.106 498.864,201.606 499.5,204C 497.353,206.162 497.353,208.496 499.5,211C 499.167,211.333 498.833,211.667 498.5,212C 500.604,213.693 502.104,215.86 503,218.5C 503.207,259.514 503.707,300.514 504.5,341.5C 502.05,341.298 499.717,341.631 497.5,342.5C 496.167,342.5 494.833,342.5 493.5,342.5C 484.211,337.544 476.878,330.544 471.5,321.5C 470.699,319.958 470.366,318.292 470.5,316.5C 468.452,303.016 467.952,289.349 469,275.5C 470.406,271.969 471.24,268.302 471.5,264.5C 475.223,254.056 479.223,243.722 483.5,233.5C 485.679,229.797 487.345,225.797 488.5,221.5C 491.989,213.012 495.656,204.678 499.5,196.5 Z"/></g>
<g><path style="opacity:1" fill="#aec1d3" d="M 394.5,235.5 C 394.281,236.675 394.614,237.675 395.5,238.5C 397.893,239.929 400.226,241.263 402.5,242.5C 396.273,246.055 390.94,250.722 386.5,256.5C 386.167,256.5 385.833,256.5 385.5,256.5C 384.345,253.525 382.678,250.858 380.5,248.5C 385.193,244.139 389.859,239.805 394.5,235.5 Z"/></g>
<g><path style="opacity:1" fill="#4ebdc8" d="M 600.5,241.5 C 601.167,241.833 601.833,242.167 602.5,242.5C 612.278,250.107 623.278,255.44 635.5,258.5C 642.418,259.827 649.418,260.661 656.5,261C 667.827,271.317 679.494,281.15 691.5,290.5C 693.5,292.833 695.5,295.167 697.5,297.5C 683.999,291.638 669.999,289.804 655.5,292C 652.007,292.942 648.674,294.275 645.5,296C 639.33,301.338 633.33,306.838 627.5,312.5C 623.731,314.419 619.731,314.919 615.5,314C 609.619,312.393 604.286,309.726 599.5,306C 590.28,292.384 580.947,278.884 571.5,265.5C 580.943,257.272 590.609,249.272 600.5,241.5 Z"/></g>
<g><path style="opacity:1" fill="#d5dee8" d="M 379.5,248.5 C 379.833,248.5 380.167,248.5 380.5,248.5C 382.678,250.858 384.345,253.525 385.5,256.5C 379.529,262.301 373.363,267.967 367,273.5C 366.506,275.134 366.34,276.801 366.5,278.5C 365.032,275.741 365.366,273.074 367.5,270.5C 366.157,268.163 364.49,266.163 362.5,264.5C 367.976,258.935 373.642,253.602 379.5,248.5 Z"/></g>
<g><path style="opacity:1" fill="#38296b" d="M 402.5,242.5 C 407.214,246.9 411.714,251.566 416,256.5C 417.903,258.441 418.736,260.774 418.5,263.5C 412.511,268.157 406.844,273.157 401.5,278.5C 401.167,278.5 400.833,278.5 400.5,278.5C 396.194,270.876 391.527,263.543 386.5,256.5C 390.94,250.722 396.273,246.055 402.5,242.5 Z"/></g>
<g><path style="opacity:1" fill="#67d7de" d="M 479.5,220.5 C 482.609,220.264 485.609,220.597 488.5,221.5C 487.345,225.797 485.679,229.797 483.5,233.5C 484.207,229.752 485.207,226.086 486.5,222.5C 482.145,223.979 477.812,225.312 473.5,226.5C 473.241,230.068 471.241,231.401 467.5,230.5C 467.773,233.137 468.106,235.47 468.5,237.5C 464.42,240.425 462.253,244.425 462,249.5C 461,250.833 460,250.833 459,249.5C 457.716,250.572 457.383,251.905 458,253.5C 454.251,249.956 453.085,250.456 454.5,255C 453.551,255.617 452.718,255.451 452,254.5C 451.667,255.167 451.333,255.833 451,256.5C 451.581,260.667 452.414,264.833 453.5,269C 451.659,270.866 449.992,272.866 448.5,275C 448.833,275.333 449.167,275.667 449.5,276C 447.84,278.911 446.674,282.078 446,285.5C 445.667,285.833 445.333,286.167 445,286.5C 444.717,283.258 443.883,282.924 442.5,285.5C 441.549,286.326 440.549,286.492 439.5,286C 438.736,283.931 438.236,281.764 438,279.5C 437.391,284.323 437.724,288.99 439,293.5C 438.581,292.328 437.915,291.328 437,290.5C 434.412,295.344 432.079,300.344 430,305.5C 429.667,305.167 429.333,304.833 429,304.5C 427.667,305.833 426.333,307.167 425,308.5C 424.985,310.791 424.818,312.958 424.5,315C 420.206,317.725 416.039,319.891 412,321.5C 410.775,321.138 409.609,320.638 408.5,320C 399.167,319.333 389.833,319.333 380.5,320C 379.671,321.816 378.837,323.649 378,325.5C 377.667,324.833 377.333,324.167 377,323.5C 376,325.167 375,326.833 374,328.5C 372.823,327.682 371.49,326.682 370,325.5C 368.273,325.646 368.106,326.313 369.5,327.5C 368.354,328.719 367.354,330.052 366.5,331.5C 365.289,330.726 365.289,329.893 366.5,329C 365.552,328.517 364.552,328.351 363.5,328.5C 369.816,324.669 375.816,320.335 381.5,315.5C 381.414,316.496 381.748,317.329 382.5,318C 393.56,319.526 404.226,318.192 414.5,314C 417.02,312.303 419.353,310.47 421.5,308.5C 431.267,300.966 436.267,290.966 436.5,278.5C 436.405,275.303 437.072,272.303 438.5,269.5C 440.247,267.474 442.08,265.474 444,263.5C 444.333,260.833 444.667,258.167 445,255.5C 446.011,254.663 447.178,254.33 448.5,254.5C 450.042,249.926 452.709,246.092 456.5,243C 456.167,242.667 455.833,242.333 455.5,242C 456.761,239.465 458.761,237.798 461.5,237C 460.058,236.623 459.058,235.79 458.5,234.5C 460.833,231.833 463.167,229.167 465.5,226.5C 467.848,226.408 469.514,225.408 470.5,223.5C 473.353,222.046 476.353,221.046 479.5,220.5 Z"/></g>
<g><path style="opacity:1" fill="#624a8b" d="M 385.5,256.5 C 385.833,256.5 386.167,256.5 386.5,256.5C 391.527,263.543 396.194,270.876 400.5,278.5C 393.063,284.763 385.73,291.263 378.5,298C 377.552,298.483 376.552,298.649 375.5,298.5C 371.987,292.135 368.987,285.468 366.5,278.5C 366.34,276.801 366.506,275.134 367,273.5C 373.363,267.967 379.529,262.301 385.5,256.5 Z"/></g>
<g><path style="opacity:1" fill="#b0c2d3" d="M 418.5,263.5 C 418.414,264.496 418.748,265.329 419.5,266C 422.174,266.67 424.507,267.837 426.5,269.5C 424.745,270.072 423.078,270.906 421.5,272C 416.605,277.064 411.605,281.897 406.5,286.5C 406.167,286.5 405.833,286.5 405.5,286.5C 404.713,283.592 403.38,280.926 401.5,278.5C 406.844,273.157 412.511,268.157 418.5,263.5 Z"/></g>
<g><path style="opacity:1" fill="#57a9be" d="M 427.5,269.5 C 430.867,270.747 434.201,270.747 437.5,269.5C 437.833,269.5 438.167,269.5 438.5,269.5C 437.072,272.303 436.405,275.303 436.5,278.5C 433.167,275.833 430.167,272.833 427.5,269.5 Z"/></g>
<g><path style="opacity:1" fill="#77e7e8" d="M 553.5,253.5 C 560.47,255.989 566.47,259.989 571.5,265.5C 580.947,278.884 590.28,292.384 599.5,306C 604.286,309.726 609.619,312.393 615.5,314C 619.731,314.919 623.731,314.419 627.5,312.5C 634.648,313.492 641.981,313.825 649.5,313.5C 641.574,325.672 632.907,337.339 623.5,348.5C 622.833,348.5 622.167,348.5 621.5,348.5C 613.125,348.74 604.792,348.407 596.5,347.5C 589.311,344.771 582.644,340.937 576.5,336C 567.833,325.333 559.167,314.667 550.5,304C 549.906,303.536 549.239,303.369 548.5,303.5C 553.009,287.164 554.675,270.497 553.5,253.5 Z"/></g>
<g><path style="opacity:1" fill="#7df3f0" d="M 721.5,312.5 C 712.989,308.323 704.989,303.323 697.5,297.5C 695.5,295.167 693.5,292.833 691.5,290.5C 695.971,291.893 699.137,294.226 701,297.5C 702.332,296.838 703.498,295.672 704.5,294C 704.167,293.667 703.833,293.333 703.5,293C 705.291,292.585 706.624,291.585 707.5,290C 709.23,288.148 710.396,288.314 711,290.5C 712.171,289.107 713.671,288.273 715.5,288C 713.913,287.138 712.246,286.471 710.5,286C 710.619,284.719 710.119,283.552 709,282.5C 707.333,282.833 705.667,283.167 704,283.5C 703.626,282.584 703.126,281.75 702.5,281C 703.938,280.781 705.271,280.281 706.5,279.5C 704.726,278.813 703.059,277.98 701.5,277C 701.833,276.667 702.167,276.333 702.5,276C 700.35,273.349 698.017,270.849 695.5,268.5C 695.846,267.304 696.346,267.304 697,268.5C 697.667,267.833 697.667,267.167 697,266.5C 694.781,264.28 692.281,262.447 689.5,261C 687.833,258.833 686.167,256.667 684.5,254.5C 683.635,253.417 682.635,253.251 681.5,254C 682.696,254.654 682.696,255.154 681.5,255.5C 680.449,254.115 679.116,253.115 677.5,252.5C 676.614,251.675 676.281,250.675 676.5,249.5C 674.567,249.271 672.9,248.438 671.5,247C 671.833,246.667 672.167,246.333 672.5,246C 669.076,242.988 665.409,240.155 661.5,237.5C 659.833,237.167 658.167,236.833 656.5,236.5C 648.766,237.248 641.099,238.414 633.5,240C 632.874,240.75 632.374,241.584 632,242.5C 631.667,242.167 631.333,241.833 631,241.5C 630.228,242.849 629.061,243.682 627.5,244C 628.09,247.151 626.756,249.484 623.5,251C 624.126,251.75 624.626,252.584 625,253.5C 627.401,252.398 629.901,252.231 632.5,253C 631.328,253.419 630.328,254.085 629.5,255C 632.019,255.586 634.019,256.753 635.5,258.5C 623.278,255.44 612.278,250.107 602.5,242.5C 624.09,239.105 645.757,236.605 667.5,235C 703.417,269.92 739.583,304.42 776,338.5C 776.432,339.6 775.932,340.267 774.5,340.5C 756.4,331.95 738.733,322.617 721.5,312.5 Z"/></g>
<g><path style="opacity:1" fill="#36296f" d="M 426.5,269.5 C 426.833,269.5 427.167,269.5 427.5,269.5C 430.167,272.833 433.167,275.833 436.5,278.5C 436.267,290.966 431.267,300.966 421.5,308.5C 416.018,301.551 411.018,294.217 406.5,286.5C 411.605,281.897 416.605,277.064 421.5,272C 423.078,270.906 424.745,270.072 426.5,269.5 Z"/></g>
<g><path style="opacity:1" fill="#5d5c92" d="M 471.5,264.5 C 471.24,268.302 470.406,271.969 469,275.5C 467.952,289.349 468.452,303.016 470.5,316.5C 467.005,311.177 465.338,305.177 465.5,298.5C 464.662,286.552 466.662,275.218 471.5,264.5 Z"/></g>
<g><path style="opacity:1" fill="#daf5f6" d="M 697.5,297.5 C 704.989,303.323 712.989,308.323 721.5,312.5C 720.624,312.369 719.957,312.702 719.5,313.5C 744.662,331.492 756.828,356.158 756,387.5C 760.08,397.914 767.246,405.414 777.5,410C 790.78,416.061 804.78,419.728 819.5,421C 806.275,422.889 792.941,424.055 779.5,424.5C 779.5,425.5 779.5,426.5 779.5,427.5C 774.083,436.669 768.417,445.669 762.5,454.5C 753.536,445.035 744.369,435.702 735,426.5C 729.143,418.783 725.476,410.116 724,400.5C 729.514,361.687 714.347,334.521 678.5,319C 669.154,315.451 659.487,313.617 649.5,313.5C 641.981,313.825 634.648,313.492 627.5,312.5C 633.33,306.838 639.33,301.338 645.5,296C 648.674,294.275 652.007,292.942 655.5,292C 669.999,289.804 683.999,291.638 697.5,297.5 Z"/></g>
<g><path style="opacity:1" fill="#d7dee7" d="M 400.5,278.5 C 400.833,278.5 401.167,278.5 401.5,278.5C 403.38,280.926 404.713,283.592 405.5,286.5C 397.541,293.824 389.541,301.157 381.5,308.5C 380.502,304.495 378.502,301.161 375.5,298.5C 376.552,298.649 377.552,298.483 378.5,298C 385.73,291.263 393.063,284.763 400.5,278.5 Z"/></g>
<g><path style="opacity:1" fill="#5d4987" d="M 405.5,286.5 C 405.833,286.5 406.167,286.5 406.5,286.5C 411.018,294.217 416.018,301.551 421.5,308.5C 419.353,310.47 417.02,312.303 414.5,314C 404.226,318.192 393.56,319.526 382.5,318C 381.748,317.329 381.414,316.496 381.5,315.5C 381.5,313.167 381.5,310.833 381.5,308.5C 389.541,301.157 397.541,293.824 405.5,286.5 Z"/></g>
<g><path style="opacity:1" fill="#fda968" d="M 548.5,303.5 C 549.239,303.369 549.906,303.536 550.5,304C 559.167,314.667 567.833,325.333 576.5,336C 582.644,340.937 589.311,344.771 596.5,347.5C 596.611,348.117 596.944,348.617 597.5,349C 602.802,349.829 608.136,350.329 613.5,350.5C 616.59,350.478 619.257,349.812 621.5,348.5C 622.167,348.5 622.833,348.5 623.5,348.5C 646.494,344.774 665.661,351.441 681,368.5C 682.421,370.405 683.588,372.405 684.5,374.5C 687.569,381.202 689.903,388.202 691.5,395.5C 692.167,405.833 692.833,416.167 693.5,426.5C 694.176,427.602 694.842,428.602 695.5,429.5C 697.095,433.862 697.762,438.196 697.5,442.5C 694.052,445.558 690.052,447.558 685.5,448.5C 681.311,445.134 677.811,441.134 675,436.5C 670.711,424.675 667.045,412.675 664,400.5C 661.685,396.362 658.852,392.695 655.5,389.5C 650.282,383.725 643.949,379.725 636.5,377.5C 636.389,376.883 636.056,376.383 635.5,376C 631.356,375.313 627.189,374.813 623,374.5C 620.705,374.547 618.871,375.213 617.5,376.5C 615.05,376.298 612.717,376.631 610.5,377.5C 604.131,377.653 597.797,377.32 591.5,376.5C 581.594,374.377 572.594,370.377 564.5,364.5C 553.833,352.5 543.167,340.5 532.5,328.5C 539.12,320.912 544.453,312.578 548.5,303.5 Z"/></g>
<g><path style="opacity:1" fill="#469bb0" d="M 649.5,313.5 C 659.487,313.617 669.154,315.451 678.5,319C 714.347,334.521 729.514,361.687 724,400.5C 725.476,410.116 729.143,418.783 735,426.5C 744.369,435.702 753.536,445.035 762.5,454.5C 775.066,468.345 782.4,484.679 784.5,503.5C 784.598,530.107 779.764,555.773 770,580.5C 768.957,583.757 768.457,587.09 768.5,590.5C 767.384,598.895 767.384,607.228 768.5,615.5C 768.667,616.5 768.833,617.5 769,618.5C 770.976,619.822 772.476,621.488 773.5,623.5C 774.688,627.552 775.688,631.552 776.5,635.5C 777.445,653.139 777.778,670.806 777.5,688.5C 777.091,692.318 776.757,696.152 776.5,700C 776.675,702.823 777.342,705.49 778.5,708C 778.081,710.086 776.914,711.586 775,712.5C 773.733,709.725 772.233,707.059 770.5,704.5C 771.46,703.188 771.294,701.854 770,700.5C 769.667,700.833 769.333,701.167 769,701.5C 768.529,699.754 767.862,698.087 767,696.5C 766.405,695.101 766.572,693.768 767.5,692.5C 766.675,691.614 765.675,691.281 764.5,691.5C 763.924,688.152 762.924,685.485 761.5,683.5C 760.5,683.5 759.5,683.5 758.5,683.5C 751.943,674.105 744.109,665.772 735,658.5C 715.665,633.005 711.165,605.005 721.5,574.5C 730.595,558.969 735.595,542.136 736.5,524C 735.752,506.338 729.585,490.838 718,477.5C 708.747,469.135 699.247,461.135 689.5,453.5C 687.817,452.147 686.484,450.48 685.5,448.5C 690.052,447.558 694.052,445.558 697.5,442.5C 699.635,442.853 700.968,442.02 701.5,440C 699.086,436.665 697.086,433.165 695.5,429.5C 694.925,416.822 694.092,404.156 693,391.5C 691.722,384.945 688.889,379.278 684.5,374.5C 683.588,372.405 682.421,370.405 681,368.5C 665.661,351.441 646.494,344.774 623.5,348.5C 632.907,337.339 641.574,325.672 649.5,313.5 Z"/></g>
<g><path style="opacity:1" fill="#64dce1" d="M 483.5,233.5 C 479.223,243.722 475.223,254.056 471.5,264.5C 466.662,275.218 464.662,286.552 465.5,298.5C 454.779,323.052 436.779,339.886 411.5,349C 404.089,349.108 396.755,349.775 389.5,351C 382.624,354.87 376.624,359.87 371.5,366C 360.982,373.332 352.482,371.498 346,360.5C 345.333,356.167 345.333,351.833 346,347.5C 347.923,343.318 350.089,339.318 352.5,335.5C 355.899,332.772 359.566,330.439 363.5,328.5C 364.552,328.351 365.552,328.517 366.5,329C 365.289,329.893 365.289,330.726 366.5,331.5C 367.354,330.052 368.354,328.719 369.5,327.5C 368.106,326.313 368.273,325.646 370,325.5C 371.49,326.682 372.823,327.682 374,328.5C 375,326.833 376,325.167 377,323.5C 377.333,324.167 377.667,324.833 378,325.5C 378.837,323.649 379.671,321.816 380.5,320C 389.833,319.333 399.167,319.333 408.5,320C 409.609,320.638 410.775,321.138 412,321.5C 416.039,319.891 420.206,317.725 424.5,315C 424.818,312.958 424.985,310.791 425,308.5C 426.333,307.167 427.667,305.833 429,304.5C 429.333,304.833 429.667,305.167 430,305.5C 432.079,300.344 434.412,295.344 437,290.5C 437.915,291.328 438.581,292.328 439,293.5C 437.724,288.99 437.391,284.323 438,279.5C 438.236,281.764 438.736,283.931 439.5,286C 440.549,286.492 441.549,286.326 442.5,285.5C 443.883,282.924 444.717,283.258 445,286.5C 445.333,286.167 445.667,285.833 446,285.5C 446.674,282.078 447.84,278.911 449.5,276C 449.167,275.667 448.833,275.333 448.5,275C 449.992,272.866 451.659,270.866 453.5,269C 452.414,264.833 451.581,260.667 451,256.5C 451.333,255.833 451.667,255.167 452,254.5C 452.718,255.451 453.551,255.617 454.5,255C 453.085,250.456 454.251,249.956 458,253.5C 457.383,251.905 457.716,250.572 459,249.5C 460,250.833 461,250.833 462,249.5C 462.253,244.425 464.42,240.425 468.5,237.5C 468.106,235.47 467.773,233.137 467.5,230.5C 471.241,231.401 473.241,230.068 473.5,226.5C 477.812,225.312 482.145,223.979 486.5,222.5C 485.207,226.086 484.207,229.752 483.5,233.5 Z"/></g>
<g><path style="opacity:1" fill="#e6b17e" d="M 596.5,347.5 C 604.792,348.407 613.125,348.74 621.5,348.5C 619.257,349.812 616.59,350.478 613.5,350.5C 608.136,350.329 602.802,349.829 597.5,349C 596.944,348.617 596.611,348.117 596.5,347.5 Z"/></g>
<g><path style="opacity:1" fill="#479caf" d="M 352.5,335.5 C 350.089,339.318 347.923,343.318 346,347.5C 345.333,351.833 345.333,356.167 346,360.5C 352.482,371.498 360.982,373.332 371.5,366C 376.624,359.87 382.624,354.87 389.5,351C 396.755,349.775 404.089,349.108 411.5,349C 436.779,339.886 454.779,323.052 465.5,298.5C 465.338,305.177 467.005,311.177 470.5,316.5C 470.366,318.292 470.699,319.958 471.5,321.5C 456.702,335.928 442.702,351.095 429.5,367C 397.511,369.66 374.011,385.16 359,413.5C 359.051,409.321 359.551,405.154 360.5,401C 360.492,399.293 360.158,397.793 359.5,396.5C 358.538,393.243 357.038,390.243 355,387.5C 350.7,384.202 346.7,380.535 343,376.5C 337.226,364.619 331.726,352.619 326.5,340.5C 326.846,339.304 327.346,339.304 328,340.5C 331.265,346.041 334.765,351.374 338.5,356.5C 340.903,336.07 343.736,315.736 347,295.5C 348.998,308.819 350.831,322.152 352.5,335.5 Z"/></g>
<g><path style="opacity:1" fill="#e4a47e" d="M 636.5,377.5 C 630.203,376.68 623.869,376.347 617.5,376.5C 618.871,375.213 620.705,374.547 623,374.5C 627.189,374.813 631.356,375.313 635.5,376C 636.056,376.383 636.389,376.883 636.5,377.5 Z"/></g>
<g><path style="opacity:1" fill="#e9f9f9" d="M 471.5,321.5 C 476.878,330.544 484.211,337.544 493.5,342.5C 496.186,343.991 499.186,344.657 502.5,344.5C 504.696,344.495 506.696,344.162 508.5,343.5C 514.935,341.784 520.602,338.784 525.5,334.5C 527.858,332.471 530.192,330.471 532.5,328.5C 543.167,340.5 553.833,352.5 564.5,364.5C 573.819,376.483 583.486,388.15 593.5,399.5C 601.928,399.061 609.594,401.061 616.5,405.5C 589.909,426.875 563.243,448.708 536.5,471C 535.101,471.595 533.768,471.428 532.5,470.5C 528.706,467.715 525.706,464.382 523.5,460.5C 523.548,457.708 522.215,455.875 519.5,455C 514.552,452.02 509.218,450.52 503.5,450.5C 501.695,446.216 499.862,441.882 498,437.5C 496.374,434.872 494.374,432.539 492,430.5C 491.517,429.552 491.351,428.552 491.5,427.5C 492.32,425.86 493.153,424.193 494,422.5C 494.5,415.842 494.666,409.175 494.5,402.5C 486.323,400.597 479.823,402.93 475,409.5C 473.579,411.405 472.412,413.405 471.5,415.5C 465.348,414.393 459.181,413.393 453,412.5C 447.496,412.601 442.163,413.601 437,415.5C 436.098,415.257 435.265,414.923 434.5,414.5C 432.528,410.895 429.861,407.895 426.5,405.5C 426.047,404.542 425.381,403.708 424.5,403C 420.179,402.501 415.846,402.334 411.5,402.5C 411.334,409.175 411.5,415.842 412,422.5C 413.431,424.364 414.597,426.364 415.5,428.5C 410.955,435.595 406.955,442.928 403.5,450.5C 396.066,449.782 389.566,452.115 384,457.5C 383.333,461.167 383.333,464.833 384,468.5C 389.753,473.918 396.586,476.251 404.5,475.5C 405.379,479.28 406.879,482.947 409,486.5C 411.81,489.464 413.976,492.798 415.5,496.5C 414.206,497.29 413.039,498.29 412,499.5C 411.5,506.826 411.334,514.159 411.5,521.5C 415.846,521.666 420.179,521.499 424.5,521C 428.416,517.59 431.749,513.757 434.5,509.5C 435.789,508.499 437.122,508.666 438.5,510C 449.662,512.249 460.662,511.749 471.5,508.5C 474.591,513.014 477.925,517.347 481.5,521.5C 466.012,532.426 451.012,544.092 436.5,556.5C 403.013,585.414 368.679,614.248 333.5,643C 332.687,644.314 331.687,645.481 330.5,646.5C 331.609,648.214 330.942,648.881 328.5,648.5C 323.167,646.167 317.833,643.833 312.5,641.5C 309.696,639.595 306.696,637.929 303.5,636.5C 317.526,597.591 331.86,558.757 346.5,520C 339.869,513.193 332.535,507.359 324.5,502.5C 325.919,501.549 327.585,501.216 329.5,501.5C 336.036,480.246 343.203,459.246 351,438.5C 355.16,424.83 357.993,410.83 359.5,396.5C 360.158,397.793 360.492,399.293 360.5,401C 359.551,405.154 359.051,409.321 359,413.5C 374.011,385.16 397.511,369.66 429.5,367C 442.702,351.095 456.702,335.928 471.5,321.5 Z"/></g>
<g><path style="opacity:1" fill="#7d799f" d="M 493.5,342.5 C 494.833,342.5 496.167,342.5 497.5,342.5C 500.962,343.482 504.629,343.815 508.5,343.5C 506.696,344.162 504.696,344.495 502.5,344.5C 499.186,344.657 496.186,343.991 493.5,342.5 Z"/></g>
<g><path style="opacity:1" fill="#6f548f" d="M 564.5,364.5 C 572.594,370.377 581.594,374.377 591.5,376.5C 591.918,377.222 592.584,377.722 593.5,378C 599.157,378.499 604.824,378.666 610.5,378.5C 610.5,378.833 610.5,379.167 610.5,379.5C 604.361,385.786 598.694,392.453 593.5,399.5C 583.486,388.15 573.819,376.483 564.5,364.5 Z"/></g>
<g><path style="opacity:1" fill="#87586d" d="M 591.5,376.5 C 597.797,377.32 604.131,377.653 610.5,377.5C 610.5,377.833 610.5,378.167 610.5,378.5C 604.824,378.666 599.157,378.499 593.5,378C 592.584,377.722 591.918,377.222 591.5,376.5 Z"/></g>
<g><path style="opacity:1" fill="#482f69" d="M 617.5,376.5 C 623.869,376.347 630.203,376.68 636.5,377.5C 643.949,379.725 650.282,383.725 655.5,389.5C 647.443,385.119 639.11,381.952 630.5,380C 623.842,379.5 617.175,379.334 610.5,379.5C 610.5,379.167 610.5,378.833 610.5,378.5C 610.5,378.167 610.5,377.833 610.5,377.5C 612.717,376.631 615.05,376.298 617.5,376.5 Z"/></g>
<g><path style="opacity:1" fill="#47347c" d="M 610.5,379.5 C 617.175,379.334 623.842,379.5 630.5,380C 639.11,381.952 647.443,385.119 655.5,389.5C 658.852,392.695 661.685,396.362 664,400.5C 667.045,412.675 670.711,424.675 675,436.5C 677.811,441.134 681.311,445.134 685.5,448.5C 686.484,450.48 687.817,452.147 689.5,453.5C 689.414,454.496 689.748,455.329 690.5,456C 689.376,456.249 688.376,456.749 687.5,457.5C 688.472,459.636 690.139,460.803 692.5,461C 691.549,461.718 691.383,462.551 692,463.5C 693.84,462.167 694.34,462.334 693.5,464C 695.76,465.335 697.927,466.835 700,468.5C 699.383,470.095 699.716,471.428 701,472.5C 701.837,470.993 703.004,470.493 704.5,471C 704.167,471.333 703.833,471.667 703.5,472C 704.249,473.734 704.749,475.567 705,477.5C 705.333,476.167 705.667,474.833 706,473.5C 706.833,475 708,476.167 709.5,477C 708.833,477.333 708.167,477.667 707.5,478C 711.003,479.757 714.336,481.591 717.5,483.5C 717.393,485.903 718.393,487.736 720.5,489C 720.167,489.333 719.833,489.667 719.5,490C 720.5,490.333 721.5,490.667 722.5,491C 722.167,491.333 721.833,491.667 721.5,492C 722.191,493.067 722.691,494.234 723,495.5C 723.893,494.289 724.726,494.289 725.5,495.5C 724.465,497.668 724.965,499.334 727,500.5C 727.914,499.346 728.747,499.513 729.5,501C 728.366,502.016 728.699,502.683 730.5,503C 730.043,503.414 729.709,503.914 729.5,504.5C 730.154,506.115 730.654,507.782 731,509.5C 731.667,510.833 732.333,510.833 733,509.5C 735.386,522.678 734.719,535.678 731,548.5C 729.333,549.833 727.667,549.833 726,548.5C 725.365,550.618 724.531,552.618 723.5,554.5C 723.608,555.442 723.941,556.275 724.5,557C 723.5,557.333 722.5,557.667 721.5,558C 722.214,559.343 721.88,560.676 720.5,562C 721.167,562.333 721.833,562.667 722.5,563C 721.313,564.019 720.313,565.186 719.5,566.5C 719.938,567.506 720.604,567.506 721.5,566.5C 721.833,567.167 722.167,567.833 722.5,568.5C 721.844,570.453 721.511,572.453 721.5,574.5C 711.165,605.005 715.665,633.005 735,658.5C 744.109,665.772 751.943,674.105 758.5,683.5C 768.212,700.254 772.545,718.421 771.5,738C 771.215,748.2 770.549,758.366 769.5,768.5C 766.5,773.833 763.5,779.167 760.5,784.5C 759.542,784.047 758.708,783.381 758,782.5C 757.187,784.436 756.687,786.436 756.5,788.5C 755.5,788.5 754.5,788.5 753.5,788.5C 753.662,790.527 753.495,792.527 753,794.5C 752.156,792.149 751.489,789.816 751,787.5C 749.383,788.536 749.216,789.703 750.5,791C 748.913,791.862 747.246,792.529 745.5,793C 746.563,794.188 747.897,794.688 749.5,794.5C 749.628,796.655 749.128,798.655 748,800.5C 746.493,799.465 744.993,799.632 743.5,801C 742.333,802.833 740.833,804.333 739,805.5C 739.333,806.833 739.667,808.167 740,809.5C 738.989,808.663 737.822,808.33 736.5,808.5C 736.063,802.617 736.063,795.95 736.5,788.5C 734.829,786.49 734.162,784.157 734.5,781.5C 745.018,742.357 733.351,712.023 699.5,690.5C 699.653,647.325 698.986,604.325 697.5,561.5C 698.07,546.6 696.57,531.933 693,517.5C 686.675,502.009 675.842,491.009 660.5,484.5C 658.167,483.167 655.833,481.833 653.5,480.5C 647.918,475.683 644.085,469.683 642,462.5C 641.144,454.516 640.477,446.516 640,438.5C 639.275,435.21 638.108,432.21 636.5,429.5C 633.716,420.212 628.383,412.712 620.5,407C 619.255,406.209 617.922,405.709 616.5,405.5C 609.594,401.061 601.928,399.061 593.5,399.5C 598.694,392.453 604.361,385.786 610.5,379.5 Z"/></g>
<g><path style="opacity:1" fill="#4d3377" d="M 426.5,405.5 C 429.861,407.895 432.528,410.895 434.5,414.5C 428.615,418.364 422.949,422.697 417.5,427.5C 416.21,426.942 415.377,425.942 415,424.5C 414.899,421.3 414.232,418.3 413,415.5C 412.501,411.514 412.334,407.514 412.5,403.5C 417.43,403.034 422.097,403.701 426.5,405.5 Z"/></g>
<g><path style="opacity:1" fill="#705694" d="M 491.5,427.5 C 485.193,423.008 478.526,419.008 471.5,415.5C 472.412,413.405 473.579,411.405 475,409.5C 479.823,402.93 486.323,400.597 494.5,402.5C 494.666,409.175 494.5,415.842 494,422.5C 493.153,424.193 492.32,425.86 491.5,427.5 Z"/></g>
<g><path style="opacity:1" fill="#433b6c" d="M 426.5,405.5 C 422.097,403.701 417.43,403.034 412.5,403.5C 412.334,407.514 412.501,411.514 413,415.5C 414.232,418.3 414.899,421.3 415,424.5C 415.377,425.942 416.21,426.942 417.5,427.5C 417.158,428.338 416.492,428.672 415.5,428.5C 414.597,426.364 413.431,424.364 412,422.5C 411.5,415.842 411.334,409.175 411.5,402.5C 415.846,402.334 420.179,402.501 424.5,403C 425.381,403.708 426.047,404.542 426.5,405.5 Z"/></g>
<g><path style="opacity:1" fill="#f992ca" d="M 471.5,415.5 C 478.526,419.008 485.193,423.008 491.5,427.5C 491.351,428.552 491.517,429.552 492,430.5C 494.374,432.539 496.374,434.872 498,437.5C 499.862,441.882 501.695,446.216 503.5,450.5C 503.863,453.989 504.196,457.489 504.5,461C 503.769,467.887 502.769,474.72 501.5,481.5C 498.547,485.625 495.381,489.625 492,493.5C 491.517,494.448 491.351,495.448 491.5,496.5C 485.124,501.02 478.458,505.02 471.5,508.5C 460.662,511.749 449.662,512.249 438.5,510C 437.122,508.666 435.789,508.499 434.5,509.5C 434.631,508.624 434.298,507.957 433.5,507.5C 427.11,504.313 421.11,500.646 415.5,496.5C 413.976,492.798 411.81,489.464 409,486.5C 406.879,482.947 405.379,479.28 404.5,475.5C 403.629,467.2 403.295,458.867 403.5,450.5C 406.955,442.928 410.955,435.595 415.5,428.5C 416.492,428.672 417.158,428.338 417.5,427.5C 422.949,422.697 428.615,418.364 434.5,414.5C 435.265,414.923 436.098,415.257 437,415.5C 442.163,413.601 447.496,412.601 453,412.5C 459.181,413.393 465.348,414.393 471.5,415.5 Z"/></g>
<g><path style="opacity:1" fill="#dbf3f6" d="M 616.5,405.5 C 617.922,405.709 619.255,406.209 620.5,407C 628.383,412.712 633.716,420.212 636.5,429.5C 644.332,485.236 632.498,536.236 601,582.5C 578.619,610.699 550.619,631.366 517,644.5C 515.97,644.836 515.47,645.503 515.5,646.5C 500.7,650.652 486.533,656.319 473,663.5C 470.901,664.287 468.734,664.62 466.5,664.5C 466.5,665.5 466.5,666.5 466.5,667.5C 461.516,658.201 456.516,648.868 451.5,639.5C 450.984,637.8 449.984,636.467 448.5,635.5C 423.181,648.491 398.181,661.991 373.5,676C 370.691,677.741 367.691,678.908 364.5,679.5C 361.344,674.053 357.344,669.219 352.5,665C 344.871,658.856 336.871,653.356 328.5,648.5C 330.942,648.881 331.609,648.214 330.5,646.5C 331.687,645.481 332.687,644.314 333.5,643C 368.679,614.248 403.013,585.414 436.5,556.5C 451.012,544.092 466.012,532.426 481.5,521.5C 485.833,521.5 490.167,521.5 494.5,521.5C 494.666,514.159 494.5,506.826 494,499.5C 493.623,498.058 492.79,497.058 491.5,496.5C 491.351,495.448 491.517,494.448 492,493.5C 495.381,489.625 498.547,485.625 501.5,481.5C 508.722,477.304 515.889,472.97 523,468.5C 523.497,465.854 523.664,463.187 523.5,460.5C 525.706,464.382 528.706,467.715 532.5,470.5C 533.768,471.428 535.101,471.595 536.5,471C 563.243,448.708 589.909,426.875 616.5,405.5 Z"/></g>
<g><path style="opacity:1" fill="#e1ab7a" d="M 684.5,374.5 C 688.889,379.278 691.722,384.945 693,391.5C 694.092,404.156 694.925,416.822 695.5,429.5C 694.842,428.602 694.176,427.602 693.5,426.5C 692.833,416.167 692.167,405.833 691.5,395.5C 689.903,388.202 687.569,381.202 684.5,374.5 Z"/></g>
<g><path style="opacity:1" fill="#e3a773" d="M 695.5,429.5 C 697.086,433.165 699.086,436.665 701.5,440C 700.968,442.02 699.635,442.853 697.5,442.5C 697.762,438.196 697.095,433.862 695.5,429.5 Z"/></g>
<g><path style="opacity:1" fill="#694f90" d="M 470.5,443.5 C 469.738,447.691 467.904,451.358 465,454.5C 459.461,460.603 453.294,465.936 446.5,470.5C 446.5,467.5 446.5,464.5 446.5,461.5C 438.167,461.5 429.833,461.5 421.5,461.5C 421.5,461.167 421.5,460.833 421.5,460.5C 423.199,460.66 424.866,460.494 426.5,460C 431.167,451.333 437.833,444.667 446.5,440C 452.08,438.483 457.747,438.149 463.5,439C 466.239,440.026 468.572,441.526 470.5,443.5 Z"/></g>
<g><path style="opacity:1" fill="#432f76" d="M 448.5,493.5 C 444.514,490.777 445.18,489.944 450.5,491C 451,491.5 451.5,492 452,492.5C 453.786,490.901 455.953,490.067 458.5,490C 459.85,488.282 461.017,486.448 462,484.5C 462.414,484.957 462.914,485.291 463.5,485.5C 465.849,484.443 467.849,482.943 469.5,481C 466.553,480.888 465.22,479.388 465.5,476.5C 468.694,476.824 469.694,475.658 468.5,473C 471.167,471.667 471.167,470.333 468.5,469C 470.335,468.072 470.668,466.906 469.5,465.5C 470.989,465.467 472.322,464.967 473.5,464C 472.209,461.91 472.876,460.576 475.5,460C 474.5,459.667 473.5,459.333 472.5,459C 473.833,458.333 475.167,457.667 476.5,457C 475.833,456.667 475.167,456.333 474.5,456C 475.676,454.326 477.01,452.826 478.5,451.5C 476.79,447.79 474.123,445.123 470.5,443.5C 468.572,441.526 466.239,440.026 463.5,439C 457.747,438.149 452.08,438.483 446.5,440C 437.833,444.667 431.167,451.333 426.5,460C 424.866,460.494 423.199,460.66 421.5,460.5C 425.254,438.609 438.254,428.775 460.5,431C 479.87,436.552 488.037,449.385 485,469.5C 479.433,487.375 467.267,495.375 448.5,493.5 Z"/></g>
<g><path style="opacity:1" fill="#ee7ac6" d="M 810.5,528.5 C 808.896,540.964 808.229,553.63 808.5,566.5C 808.5,588.833 808.5,611.167 808.5,633.5C 807.336,600.002 807.169,566.336 808,532.5C 808.251,530.567 808.751,528.734 809.5,527C 807.26,526.023 804.927,525.523 802.5,525.5C 802.5,527.167 802.5,528.833 802.5,530.5C 801.178,530.67 800.011,530.337 799,529.5C 798.667,530.5 798.333,531.5 798,532.5C 797.333,533.833 796.667,533.833 796,532.5C 795.827,528.459 795.327,524.459 794.5,520.5C 792.289,519.807 791.955,518.641 793.5,517C 793.097,515.527 792.43,514.194 791.5,513C 791.957,512.586 792.291,512.086 792.5,511.5C 791.732,507.555 791.232,503.555 791,499.5C 789.075,509.341 787.575,519.341 786.5,529.5C 786.36,531.03 785.693,532.03 784.5,532.5C 785.673,522.678 785.673,513.011 784.5,503.5C 782.4,484.679 775.066,468.345 762.5,454.5C 768.417,445.669 774.083,436.669 779.5,427.5C 780.496,427.586 781.329,427.252 782,426.5C 791.288,435.079 798.621,445.079 804,456.5C 808.427,469.207 811.76,482.207 814,495.5C 822.223,512.262 829.556,529.262 836,546.5C 828.439,539.972 820.606,533.805 812.5,528C 811.563,527.308 810.897,527.475 810.5,528.5 Z"/></g>
<g><path style="opacity:1" fill="#41377a" d="M 689.5,453.5 C 699.247,461.135 708.747,469.135 718,477.5C 729.585,490.838 735.752,506.338 736.5,524C 735.595,542.136 730.595,558.969 721.5,574.5C 721.511,572.453 721.844,570.453 722.5,568.5C 722.167,567.833 721.833,567.167 721.5,566.5C 720.604,567.506 719.938,567.506 719.5,566.5C 720.313,565.186 721.313,564.019 722.5,563C 721.833,562.667 721.167,562.333 720.5,562C 721.88,560.676 722.214,559.343 721.5,558C 722.5,557.667 723.5,557.333 724.5,557C 723.941,556.275 723.608,555.442 723.5,554.5C 724.531,552.618 725.365,550.618 726,548.5C 727.667,549.833 729.333,549.833 731,548.5C 734.719,535.678 735.386,522.678 733,509.5C 732.333,510.833 731.667,510.833 731,509.5C 730.654,507.782 730.154,506.115 729.5,504.5C 729.709,503.914 730.043,503.414 730.5,503C 728.699,502.683 728.366,502.016 729.5,501C 728.747,499.513 727.914,499.346 727,500.5C 724.965,499.334 724.465,497.668 725.5,495.5C 724.726,494.289 723.893,494.289 723,495.5C 722.691,494.234 722.191,493.067 721.5,492C 721.833,491.667 722.167,491.333 722.5,491C 721.5,490.667 720.5,490.333 719.5,490C 719.833,489.667 720.167,489.333 720.5,489C 718.393,487.736 717.393,485.903 717.5,483.5C 714.336,481.591 711.003,479.757 707.5,478C 708.167,477.667 708.833,477.333 709.5,477C 708,476.167 706.833,475 706,473.5C 705.667,474.833 705.333,476.167 705,477.5C 704.749,475.567 704.249,473.734 703.5,472C 703.833,471.667 704.167,471.333 704.5,471C 703.004,470.493 701.837,470.993 701,472.5C 699.716,471.428 699.383,470.095 700,468.5C 697.927,466.835 695.76,465.335 693.5,464C 694.34,462.334 693.84,462.167 692,463.5C 691.383,462.551 691.549,461.718 692.5,461C 690.139,460.803 688.472,459.636 687.5,457.5C 688.376,456.749 689.376,456.249 690.5,456C 689.748,455.329 689.414,454.496 689.5,453.5 Z"/></g>
<g><path style="opacity:1" fill="#6f558e" d="M 403.5,450.5 C 403.295,458.867 403.629,467.2 404.5,475.5C 396.586,476.251 389.753,473.918 384,468.5C 383.333,464.833 383.333,461.167 384,457.5C 389.566,452.115 396.066,449.782 403.5,450.5 Z"/></g>
<g><path style="opacity:1" fill="#4c377f" d="M 470.5,443.5 C 474.123,445.123 476.79,447.79 478.5,451.5C 477.01,452.826 475.676,454.326 474.5,456C 475.167,456.333 475.833,456.667 476.5,457C 475.167,457.667 473.833,458.333 472.5,459C 473.5,459.333 474.5,459.667 475.5,460C 472.876,460.576 472.209,461.91 473.5,464C 472.322,464.967 470.989,465.467 469.5,465.5C 470.668,466.906 470.335,468.072 468.5,469C 471.167,470.333 471.167,471.667 468.5,473C 469.694,475.658 468.694,476.824 465.5,476.5C 465.22,479.388 466.553,480.888 469.5,481C 467.849,482.943 465.849,484.443 463.5,485.5C 462.914,485.291 462.414,484.957 462,484.5C 461.017,486.448 459.85,488.282 458.5,490C 455.953,490.067 453.786,490.901 452,492.5C 451.5,492 451,491.5 450.5,491C 445.18,489.944 444.514,490.777 448.5,493.5C 439.347,491.678 432.014,487.012 426.5,479.5C 432.153,481.333 437.153,480.166 441.5,476C 443.3,474.188 444.967,472.355 446.5,470.5C 453.294,465.936 459.461,460.603 465,454.5C 467.904,451.358 469.738,447.691 470.5,443.5 Z"/></g>
<g><path style="opacity:1" fill="#faf8fa" d="M 421.5,461.5 C 429.833,461.5 438.167,461.5 446.5,461.5C 446.5,464.5 446.5,467.5 446.5,470.5C 444.967,472.355 443.3,474.188 441.5,476C 437.153,480.166 432.153,481.333 426.5,479.5C 422.229,475.731 418.062,471.731 414,467.5C 412.441,465.783 411.608,463.783 411.5,461.5C 414.833,461.5 418.167,461.5 421.5,461.5 Z"/></g>
<g><path style="opacity:1" fill="#412f74" d="M 503.5,450.5 C 509.218,450.52 514.552,452.02 519.5,455C 522.215,455.875 523.548,457.708 523.5,460.5C 523.664,463.187 523.497,465.854 523,468.5C 515.889,472.97 508.722,477.304 501.5,481.5C 502.769,474.72 503.769,467.887 504.5,461C 504.196,457.489 503.863,453.989 503.5,450.5 Z"/></g>
<g><path style="opacity:1" fill="#463279" d="M 415.5,496.5 C 421.11,500.646 427.11,504.313 433.5,507.5C 434.298,507.957 434.631,508.624 434.5,509.5C 431.749,513.757 428.416,517.59 424.5,521C 420.179,521.499 415.846,521.666 411.5,521.5C 411.334,514.159 411.5,506.826 412,499.5C 413.039,498.29 414.206,497.29 415.5,496.5 Z"/></g>
<g><path style="opacity:1" fill="#715493" d="M 491.5,496.5 C 492.79,497.058 493.623,498.058 494,499.5C 494.5,506.826 494.666,514.159 494.5,521.5C 490.167,521.5 485.833,521.5 481.5,521.5C 477.925,517.347 474.591,513.014 471.5,508.5C 478.458,505.02 485.124,501.02 491.5,496.5 Z"/></g>
<g><path style="opacity:1" fill="#7d9fb4" d="M 636.5,429.5 C 638.108,432.21 639.275,435.21 640,438.5C 640.477,446.516 641.144,454.516 642,462.5C 644.085,469.683 647.918,475.683 653.5,480.5C 654.684,538.138 634.684,586.971 593.5,627C 579.494,636.331 566.661,647.164 555,659.5C 546.271,671.515 542.104,684.849 542.5,699.5C 536.39,680.278 527.39,662.612 515.5,646.5C 515.47,645.503 515.97,644.836 517,644.5C 550.619,631.366 578.619,610.699 601,582.5C 632.498,536.236 644.332,485.236 636.5,429.5 Z"/></g>
<g><path style="opacity:1" fill="#fddff5" d="M 810.5,528.5 C 810.365,541.349 809.698,554.016 808.5,566.5C 808.229,553.63 808.896,540.964 810.5,528.5 Z"/></g>
<g><path style="opacity:1" fill="#e9f9f8" d="M 653.5,480.5 C 655.833,481.833 658.167,483.167 660.5,484.5C 660.167,590.335 660.501,696.001 661.5,801.5C 631.113,810.519 600.78,819.853 570.5,829.5C 568.475,813.823 566.308,798.157 564,782.5C 560.485,767.593 557.485,752.593 555,737.5C 550.706,724.784 546.539,712.118 542.5,699.5C 542.104,684.849 546.271,671.515 555,659.5C 566.661,647.164 579.494,636.331 593.5,627C 634.684,586.971 654.684,538.138 653.5,480.5 Z"/></g>
<g><path style="opacity:1" fill="#ce82c6" d="M 784.5,503.5 C 785.673,513.011 785.673,522.678 784.5,532.5C 782.435,543.724 780.102,554.891 777.5,566C 773.989,571.22 772.323,577.054 772.5,583.5C 770.274,587.069 769.274,591.069 769.5,595.5C 769.929,599.831 770.262,604.165 770.5,608.5C 768.85,602.75 768.184,596.75 768.5,590.5C 768.457,587.09 768.957,583.757 770,580.5C 779.764,555.773 784.598,530.107 784.5,503.5 Z"/></g>
<g><path style="opacity:1" fill="#e67cc6" d="M 772.5,583.5 C 773.206,589.482 773.206,595.148 772.5,600.5C 772.529,602.029 773.196,603.196 774.5,604C 773.572,604.388 772.905,605.055 772.5,606C 774.035,611.319 776.035,615.986 778.5,620C 777.296,621.353 776.629,623.019 776.5,625C 776.007,629.19 777.674,632.024 781.5,633.5C 780.344,656.457 780.177,679.457 781,702.5C 783.304,712.058 785.471,721.725 787.5,731.5C 782.152,717.817 779.152,703.484 778.5,688.5C 778.667,671.83 778.5,655.163 778,638.5C 777.768,637.263 777.268,636.263 776.5,635.5C 775.688,631.552 774.688,627.552 773.5,623.5C 772.031,618.618 771.031,613.618 770.5,608.5C 770.262,604.165 769.929,599.831 769.5,595.5C 769.274,591.069 770.274,587.069 772.5,583.5 Z"/></g>
<g><path style="opacity:1" fill="#f076c6" d="M 808.5,633.5 C 808.5,645.167 808.5,656.833 808.5,668.5C 808.614,688.57 809.781,708.57 812,728.5C 812.377,729.942 813.21,730.942 814.5,731.5C 815.146,736.75 815.146,741.917 814.5,747C 815.227,748.399 815.727,749.899 816,751.5C 816.333,750.833 816.667,750.167 817,749.5C 818.286,753.829 819.452,758.163 820.5,762.5C 815.489,762.666 810.489,762.499 805.5,762C 803.557,759.352 801.891,756.518 800.5,753.5C 799.61,752.045 799.61,750.711 800.5,749.5C 799.687,748.186 798.687,747.019 797.5,746C 797.833,745.667 798.167,745.333 798.5,745C 797.107,743.829 796.273,742.329 796,740.5C 795.086,741.654 794.253,741.487 793.5,740C 793.833,739.667 794.167,739.333 794.5,739C 793.207,738.51 791.873,738.343 790.5,738.5C 790.821,735.423 789.821,733.09 787.5,731.5C 785.471,721.725 783.304,712.058 781,702.5C 780.177,679.457 780.344,656.457 781.5,633.5C 777.674,632.024 776.007,629.19 776.5,625C 776.629,623.019 777.296,621.353 778.5,620C 776.035,615.986 774.035,611.319 772.5,606C 772.905,605.055 773.572,604.388 774.5,604C 773.196,603.196 772.529,602.029 772.5,600.5C 773.206,595.148 773.206,589.482 772.5,583.5C 772.323,577.054 773.989,571.22 777.5,566C 780.102,554.891 782.435,543.724 784.5,532.5C 785.693,532.03 786.36,531.03 786.5,529.5C 787.575,519.341 789.075,509.341 791,499.5C 791.232,503.555 791.732,507.555 792.5,511.5C 792.291,512.086 791.957,512.586 791.5,513C 792.43,514.194 793.097,515.527 793.5,517C 791.955,518.641 792.289,519.807 794.5,520.5C 795.327,524.459 795.827,528.459 796,532.5C 796.667,533.833 797.333,533.833 798,532.5C 798.333,531.5 798.667,530.5 799,529.5C 800.011,530.337 801.178,530.67 802.5,530.5C 802.5,528.833 802.5,527.167 802.5,525.5C 804.927,525.523 807.26,526.023 809.5,527C 808.751,528.734 808.251,530.567 808,532.5C 807.169,566.336 807.336,600.002 808.5,633.5 Z"/></g>
<g><path style="opacity:1" fill="#469baf" d="M 324.5,502.5 C 332.535,507.359 339.869,513.193 346.5,520C 331.86,558.757 317.526,597.591 303.5,636.5C 295.419,633.293 287.753,629.293 280.5,624.5C 294.966,583.769 309.633,543.102 324.5,502.5 Z"/></g>
<g><path style="opacity:1" fill="#6f93b1" d="M 768.5,590.5 C 768.184,596.75 768.85,602.75 770.5,608.5C 771.031,613.618 772.031,618.618 773.5,623.5C 772.476,621.488 770.976,619.822 769,618.5C 768.833,617.5 768.667,616.5 768.5,615.5C 767.384,607.228 767.384,598.895 768.5,590.5 Z"/></g>
<g><path style="opacity:1" fill="#705493" d="M 280.5,624.5 C 287.753,629.293 295.419,633.293 303.5,636.5C 306.696,637.929 309.696,639.595 312.5,641.5C 312.682,648.444 310.848,654.778 307,660.5C 301.066,670.101 294.733,679.434 288,688.5C 285.894,691.118 283.394,693.118 280.5,694.5C 268.131,693.335 261.131,698.835 259.5,711C 259.504,714.502 260.504,717.669 262.5,720.5C 261.429,724.802 260.095,729.135 258.5,733.5C 257.624,734.251 256.624,734.751 255.5,735C 257.406,737.061 259.073,739.228 260.5,741.5C 246.82,732.122 241.32,719.122 244,702.5C 246.708,693.803 251.708,686.803 259,681.5C 265.108,661.996 272.275,642.996 280.5,624.5 Z"/></g>
<g><path style="opacity:1" fill="#9ab1cc" d="M 697.5,561.5 C 698.986,604.325 699.653,647.325 699.5,690.5C 698.566,677.314 697.566,663.981 696.5,650.5C 697.477,620.852 697.81,591.185 697.5,561.5 Z"/></g>
<g><path style="opacity:1" fill="#5f488b" d="M 312.5,641.5 C 317.833,643.833 323.167,646.167 328.5,648.5C 336.871,653.356 344.871,658.856 352.5,665C 357.344,669.219 361.344,674.053 364.5,679.5C 366.013,681.349 367.346,683.349 368.5,685.5C 364.016,686.98 360.016,689.314 356.5,692.5C 352.293,698.271 349.126,704.604 347,711.5C 342.652,717.76 337.485,723.26 331.5,728C 317.71,733.937 304.043,740.27 290.5,747C 288.759,748.62 286.925,750.12 285,751.5C 285.14,753.851 285.64,756.184 286.5,758.5C 283.696,754.846 281.03,751.013 278.5,747C 271.821,747.003 265.821,745.17 260.5,741.5C 259.073,739.228 257.406,737.061 255.5,735C 256.624,734.751 257.624,734.251 258.5,733.5C 260.095,729.135 261.429,724.802 262.5,720.5C 268.893,727.882 276.559,729.382 285.5,725C 291.918,720.41 294.418,714.243 293,706.5C 285.042,706.374 280.875,702.374 280.5,694.5C 283.394,693.118 285.894,691.118 288,688.5C 294.733,679.434 301.066,670.101 307,660.5C 310.848,654.778 312.682,648.444 312.5,641.5 Z"/></g>
<g><path style="opacity:1" fill="#6e5290" d="M 451.5,639.5 C 450.265,639.279 449.265,638.612 448.5,637.5C 448.167,638 447.833,638.5 447.5,639C 451.38,649.031 448.713,656.697 439.5,662C 417.172,671.939 394.838,681.772 372.5,691.5C 370.684,689.882 369.351,687.882 368.5,685.5C 367.346,683.349 366.013,681.349 364.5,679.5C 367.691,678.908 370.691,677.741 373.5,676C 398.181,661.991 423.181,648.491 448.5,635.5C 449.984,636.467 450.984,637.8 451.5,639.5 Z"/></g>
<g><path style="opacity:1" fill="#3b2c71" d="M 451.5,639.5 C 456.516,648.868 461.516,658.201 466.5,667.5C 468.059,670.488 467.059,672.321 463.5,673C 436.412,684.86 409.079,696.027 381.5,706.5C 380.167,706.5 378.833,706.5 377.5,706.5C 375.687,701.595 374.02,696.595 372.5,691.5C 394.838,681.772 417.172,671.939 439.5,662C 448.713,656.697 451.38,649.031 447.5,639C 447.833,638.5 448.167,638 448.5,637.5C 449.265,638.612 450.265,639.279 451.5,639.5 Z"/></g>
<g><path style="opacity:1" fill="#9cc0cc" d="M 660.5,484.5 C 675.842,491.009 686.675,502.009 693,517.5C 696.57,531.933 698.07,546.6 697.5,561.5C 697.81,591.185 697.477,620.852 696.5,650.5C 697.566,663.981 698.566,677.314 699.5,690.5C 733.351,712.023 745.018,742.357 734.5,781.5C 734.167,781.5 733.833,781.5 733.5,781.5C 733.631,780.761 733.464,780.094 733,779.5C 709.13,786.734 685.297,794.068 661.5,801.5C 660.501,696.001 660.167,590.335 660.5,484.5 Z"/></g>
<g><path style="opacity:1" fill="#9e8ab7" d="M 776.5,635.5 C 777.268,636.263 777.768,637.263 778,638.5C 778.5,655.163 778.667,671.83 778.5,688.5C 778.167,688.5 777.833,688.5 777.5,688.5C 777.778,670.806 777.445,653.139 776.5,635.5 Z"/></g>
<g><path style="opacity:1" fill="#4f3b82" d="M 368.5,685.5 C 369.351,687.882 370.684,689.882 372.5,691.5C 374.02,696.595 375.687,701.595 377.5,706.5C 378.833,706.5 380.167,706.5 381.5,706.5C 380.071,707.234 379.071,708.401 378.5,710C 380.539,714.988 381.872,720.155 382.5,725.5C 382.875,728.397 382.375,731.063 381,733.5C 380.086,729.815 379.419,730.148 379,734.5C 377.691,736.891 376.691,736.891 376,734.5C 374.057,738.486 371.39,739.153 368,736.5C 367.667,737.833 367.333,739.167 367,740.5C 366.667,740.167 366.333,739.833 366,739.5C 362.589,740.293 359.089,740.793 355.5,741C 357.246,741.471 358.913,742.138 360.5,743C 359.975,743.692 359.308,744.192 358.5,744.5C 357.742,743.189 356.742,742.689 355.5,743C 355.899,744.294 355.899,745.794 355.5,747.5C 354.784,746.689 353.95,746.022 353,745.5C 352.333,746.167 351.667,746.833 351,747.5C 350.228,747.355 349.561,747.022 349,746.5C 348.654,748.848 347.487,750.681 345.5,752C 348.076,753.383 347.742,754.217 344.5,754.5C 342.956,754.21 341.623,753.544 340.5,752.5C 339.833,753.833 339.167,755.167 338.5,756.5C 337.914,756.291 337.414,755.957 337,755.5C 334.541,757.805 331.874,759.805 329,761.5C 326.845,760.317 324.845,760.65 323,762.5C 321.951,761.483 320.784,761.316 319.5,762C 319.833,762.333 320.167,762.667 320.5,763C 317.443,763.256 314.443,763.756 311.5,764.5C 310.833,764.167 310.167,763.833 309.5,763.5C 308.399,765.012 308.733,766.512 310.5,768C 309.552,768.483 308.552,768.649 307.5,768.5C 307.5,766.833 307.5,765.167 307.5,763.5C 304.402,763.413 304.068,763.913 306.5,765C 299.965,769.764 295.298,768.098 292.5,760C 290.482,759.495 288.482,758.995 286.5,758.5C 285.64,756.184 285.14,753.851 285,751.5C 286.925,750.12 288.759,748.62 290.5,747C 304.043,740.27 317.71,733.937 331.5,728C 337.485,723.26 342.652,717.76 347,711.5C 349.126,704.604 352.293,698.271 356.5,692.5C 360.016,689.314 364.016,686.98 368.5,685.5 Z"/></g>
<g><path style="opacity:1" fill="#fbfafb" d="M 280.5,694.5 C 280.875,702.374 285.042,706.374 293,706.5C 294.418,714.243 291.918,720.41 285.5,725C 276.559,729.382 268.893,727.882 262.5,720.5C 260.504,717.669 259.504,714.502 259.5,711C 261.131,698.835 268.131,693.335 280.5,694.5 Z"/></g>
<g><path style="opacity:1" fill="#4b97ac" d="M 758.5,683.5 C 759.5,683.5 760.5,683.5 761.5,683.5C 762.924,685.485 763.924,688.152 764.5,691.5C 765.675,691.281 766.675,691.614 767.5,692.5C 766.572,693.768 766.405,695.101 767,696.5C 767.862,698.087 768.529,699.754 769,701.5C 769.333,701.167 769.667,700.833 770,700.5C 771.294,701.854 771.46,703.188 770.5,704.5C 772.233,707.059 773.733,709.725 775,712.5C 776.914,711.586 778.081,710.086 778.5,708C 777.342,705.49 776.675,702.823 776.5,700C 776.757,696.152 777.091,692.318 777.5,688.5C 777.833,688.5 778.167,688.5 778.5,688.5C 779.152,703.484 782.152,717.817 787.5,731.5C 791.08,741.992 796.247,751.659 803,760.5C 803.483,761.448 803.649,762.448 803.5,763.5C 791.978,763.871 780.644,765.538 769.5,768.5C 770.549,758.366 771.215,748.2 771.5,738C 772.545,718.421 768.212,700.254 758.5,683.5 Z"/></g>
<g><path style="opacity:1" fill="#e68ccc" d="M 808.5,668.5 C 809.792,689.431 811.792,710.431 814.5,731.5C 813.21,730.942 812.377,729.942 812,728.5C 809.781,708.57 808.614,688.57 808.5,668.5 Z"/></g>
<g><path style="opacity:1" fill="#e68ac6" d="M 787.5,731.5 C 789.821,733.09 790.821,735.423 790.5,738.5C 791.873,738.343 793.207,738.51 794.5,739C 794.167,739.333 793.833,739.667 793.5,740C 794.253,741.487 795.086,741.654 796,740.5C 796.273,742.329 797.107,743.829 798.5,745C 798.167,745.333 797.833,745.667 797.5,746C 798.687,747.019 799.687,748.186 800.5,749.5C 799.61,750.711 799.61,752.045 800.5,753.5C 801.891,756.518 803.557,759.352 805.5,762C 810.489,762.499 815.489,762.666 820.5,762.5C 819.452,758.163 818.286,753.829 817,749.5C 816.667,750.167 816.333,750.833 816,751.5C 815.727,749.899 815.227,748.399 814.5,747C 815.146,741.917 815.146,736.75 814.5,731.5C 816.83,742.154 819.497,752.821 822.5,763.5C 816.167,763.5 809.833,763.5 803.5,763.5C 803.649,762.448 803.483,761.448 803,760.5C 796.247,751.659 791.08,741.992 787.5,731.5 Z"/></g>
<g><path style="opacity:1" fill="#534084" d="M 382.5,725.5 C 384.408,730.623 384.742,735.956 383.5,741.5C 363.833,754 344.167,766.5 324.5,779C 308.888,777.693 296.221,770.86 286.5,758.5C 288.482,758.995 290.482,759.495 292.5,760C 295.298,768.098 299.965,769.764 306.5,765C 304.068,763.913 304.402,763.413 307.5,763.5C 307.5,765.167 307.5,766.833 307.5,768.5C 308.552,768.649 309.552,768.483 310.5,768C 308.733,766.512 308.399,765.012 309.5,763.5C 310.167,763.833 310.833,764.167 311.5,764.5C 314.443,763.756 317.443,763.256 320.5,763C 320.167,762.667 319.833,762.333 319.5,762C 320.784,761.316 321.951,761.483 323,762.5C 324.845,760.65 326.845,760.317 329,761.5C 331.874,759.805 334.541,757.805 337,755.5C 337.414,755.957 337.914,756.291 338.5,756.5C 339.167,755.167 339.833,753.833 340.5,752.5C 341.623,753.544 342.956,754.21 344.5,754.5C 347.742,754.217 348.076,753.383 345.5,752C 347.487,750.681 348.654,748.848 349,746.5C 349.561,747.022 350.228,747.355 351,747.5C 351.667,746.833 352.333,746.167 353,745.5C 353.95,746.022 354.784,746.689 355.5,747.5C 355.899,745.794 355.899,744.294 355.5,743C 356.742,742.689 357.742,743.189 358.5,744.5C 359.308,744.192 359.975,743.692 360.5,743C 358.913,742.138 357.246,741.471 355.5,741C 359.089,740.793 362.589,740.293 366,739.5C 366.333,739.833 366.667,740.167 367,740.5C 367.333,739.167 367.667,737.833 368,736.5C 371.39,739.153 374.057,738.486 376,734.5C 376.691,736.891 377.691,736.891 379,734.5C 379.419,730.148 380.086,729.815 381,733.5C 382.375,731.063 382.875,728.397 382.5,725.5 Z"/></g>
<g><path style="opacity:1" fill="#473678" d="M 733.5,781.5 C 733.833,781.5 734.167,781.5 734.5,781.5C 734.162,784.157 734.829,786.49 736.5,788.5C 736.063,795.95 736.063,802.617 736.5,808.5C 737.822,808.33 738.989,808.663 740,809.5C 739.667,808.167 739.333,806.833 739,805.5C 740.833,804.333 742.333,802.833 743.5,801C 744.993,799.632 746.493,799.465 748,800.5C 749.128,798.655 749.628,796.655 749.5,794.5C 747.897,794.688 746.563,794.188 745.5,793C 747.246,792.529 748.913,791.862 750.5,791C 749.216,789.703 749.383,788.536 751,787.5C 751.489,789.816 752.156,792.149 753,794.5C 753.495,792.527 753.662,790.527 753.5,788.5C 754.5,788.5 755.5,788.5 756.5,788.5C 756.687,786.436 757.187,784.436 758,782.5C 758.708,783.381 759.542,784.047 760.5,784.5C 745.177,809.81 729.344,834.81 713,859.5C 712.672,856.793 713.005,854.126 714,851.5C 721.128,828.32 727.628,804.987 733.5,781.5 Z"/></g>
</svg>
